%TF.GenerationSoftware,KiCad,Pcbnew,(6.0.0)*%
%TF.CreationDate,2022-08-30T12:58:24+02:00*%
%TF.ProjectId,OBJEX-EHDK_v1.0,4f424a45-582d-4454-9844-4b5f76312e30,1.0*%
%TF.SameCoordinates,Original*%
%TF.FileFunction,Copper,L2,Bot*%
%TF.FilePolarity,Positive*%
%FSLAX46Y46*%
G04 Gerber Fmt 4.6, Leading zero omitted, Abs format (unit mm)*
G04 Created by KiCad (PCBNEW (6.0.0)) date 2022-08-30 12:58:24*
%MOMM*%
%LPD*%
G01*
G04 APERTURE LIST*
%TA.AperFunction,ComponentPad*%
%ADD10C,3.600000*%
%TD*%
%TA.AperFunction,ComponentPad*%
%ADD11C,5.500000*%
%TD*%
%TA.AperFunction,ComponentPad*%
%ADD12R,1.700000X1.700000*%
%TD*%
%TA.AperFunction,ComponentPad*%
%ADD13O,1.700000X1.700000*%
%TD*%
%TA.AperFunction,ViaPad*%
%ADD14C,0.600000*%
%TD*%
%TA.AperFunction,Conductor*%
%ADD15C,0.250000*%
%TD*%
%TA.AperFunction,Conductor*%
%ADD16C,0.200000*%
%TD*%
G04 APERTURE END LIST*
D10*
%TO.P,J27,1,Pin_1*%
%TO.N,GND*%
X123390000Y-116760000D03*
%TD*%
D11*
%TO.P,H1,1,1*%
%TO.N,GND*%
X94200000Y-62800000D03*
%TD*%
D10*
%TO.P,J21,1,Pin_1*%
%TO.N,/ADP5091/Vout(MCU)*%
X145000000Y-102000000D03*
%TD*%
D12*
%TO.P,J19,1,Pin_1*%
%TO.N,GND*%
X125400000Y-95900000D03*
D13*
%TO.P,J19,2,Pin_2*%
X125400000Y-98440000D03*
%TD*%
D10*
%TO.P,J14,1,Pin_1*%
%TO.N,/SPV1050TTR/Vout_1V8*%
X145000000Y-77150000D03*
%TD*%
%TO.P,J22,1,Pin_1*%
%TO.N,/ADP5091/SolarPanel*%
X133500000Y-116700000D03*
%TD*%
D12*
%TO.P,J7,1,Pin_1*%
%TO.N,/SPV1050TTR/Vout_1V8*%
X154500000Y-77200000D03*
D13*
%TO.P,J7,2,Pin_2*%
%TO.N,GND*%
X154500000Y-79740000D03*
%TD*%
D12*
%TO.P,J9,1,Pin_1*%
%TO.N,/SPV1050TTR/BATT_OK*%
X129000000Y-84500000D03*
D13*
%TO.P,J9,2,Pin_2*%
%TO.N,/SPV1050TTR/BATT_CHG*%
X126460000Y-84500000D03*
%TO.P,J9,3,Pin_3*%
%TO.N,/SPV1050TTR/LDO_EN_1V8*%
X123920000Y-84500000D03*
%TO.P,J9,4,Pin_4*%
%TO.N,/SPV1050TTR/LDO_EN_3V3*%
X121380000Y-84500000D03*
%TD*%
D12*
%TO.P,J4,1,Pin_1*%
%TO.N,GND*%
X117375000Y-119500000D03*
D13*
%TO.P,J4,2,Pin_2*%
%TO.N,/ADP5091/BATT_ADP5091*%
X114835000Y-119500000D03*
%TD*%
D12*
%TO.P,J16,1,Pin_1*%
%TO.N,/ADP5091/Vout(MCU)*%
X154500000Y-102000000D03*
D13*
%TO.P,J16,2,Pin_2*%
%TO.N,GND*%
X154500000Y-99460000D03*
%TD*%
D10*
%TO.P,J25,1,Pin_1*%
%TO.N,/ADP5091/BATT_ADP5091*%
X112500000Y-110000000D03*
%TD*%
D12*
%TO.P,J26,1,Pin_1*%
%TO.N,/SPV1050TTR/STORE*%
X123925000Y-80900000D03*
D13*
%TO.P,J26,2,Pin_2*%
X121385000Y-80900000D03*
%TD*%
D10*
%TO.P,J13,1,Pin_1*%
%TO.N,/SPV1050TTR/PV_MODULE*%
X133350000Y-63575000D03*
%TD*%
D12*
%TO.P,J18,1,Pin_1*%
%TO.N,/ADP5091/REG_D1*%
X129000000Y-95925000D03*
D13*
%TO.P,J18,2,Pin_2*%
%TO.N,/ADP5091/REG_D0*%
X129000000Y-98465000D03*
%TD*%
D11*
%TO.P,H4,1,1*%
%TO.N,GND*%
X94300000Y-118400000D03*
%TD*%
D12*
%TO.P,J15,1,Pin_1*%
%TO.N,GND*%
X140575000Y-119800000D03*
D13*
%TO.P,J15,2,Pin_2*%
%TO.N,/ADP5091/SolarPanel*%
X138035000Y-119800000D03*
%TD*%
D12*
%TO.P,J6,1,Pin_1*%
%TO.N,GND*%
X140525000Y-61500000D03*
D13*
%TO.P,J6,2,Pin_2*%
%TO.N,/SPV1050TTR/PV_MODULE*%
X137985000Y-61500000D03*
%TD*%
D12*
%TO.P,J17,1,Pin_1*%
%TO.N,/ADP5091/Vout(Sens)*%
X154500000Y-106700000D03*
D13*
%TO.P,J17,2,Pin_2*%
%TO.N,GND*%
X154500000Y-109240000D03*
%TD*%
D11*
%TO.P,H2,1,1*%
%TO.N,GND*%
X153100000Y-118400000D03*
%TD*%
D10*
%TO.P,J24,1,Pin_1*%
%TO.N,/ADP5091/BACKUP-BATT_ADP5091*%
X119400000Y-98000000D03*
%TD*%
%TO.P,J20,1,Pin_1*%
%TO.N,/ADP5091/LLD*%
X128500000Y-116750000D03*
%TD*%
D12*
%TO.P,J1,1,Pin_1*%
%TO.N,GND*%
X117400000Y-61600000D03*
D13*
%TO.P,J1,2,Pin_2*%
%TO.N,/BatteryConnectors/BATT_SPV1050*%
X114860000Y-61600000D03*
%TD*%
D10*
%TO.P,J23,1,Pin_1*%
%TO.N,/ADP5091/Vout(Sens)*%
X144975000Y-106675000D03*
%TD*%
%TO.P,J11,1,Pin_1*%
%TO.N,/BatteryConnectors/BATT_SPV1050*%
X112500000Y-72000000D03*
%TD*%
D12*
%TO.P,J3,1,Pin_1*%
%TO.N,/BatteryConnectors/BATT_SPV1050*%
X114300000Y-88475000D03*
D13*
%TO.P,J3,2,Pin_2*%
%TO.N,Net-(BT1-PadP1)*%
X114300000Y-91015000D03*
%TO.P,J3,3,Pin_3*%
%TO.N,/ADP5091/BACKUP-BATT_ADP5091*%
X114300000Y-93555000D03*
%TD*%
D12*
%TO.P,J10,1,Pin_1*%
%TO.N,GND*%
X121400000Y-88100000D03*
D13*
%TO.P,J10,2,Pin_2*%
X123940000Y-88100000D03*
%TD*%
D10*
%TO.P,J12,1,Pin_1*%
%TO.N,/SPV1050TTR/Vout_3V3*%
X145000000Y-72500000D03*
%TD*%
D11*
%TO.P,H3,1,1*%
%TO.N,GND*%
X153100000Y-62900000D03*
%TD*%
D12*
%TO.P,J8,1,Pin_1*%
%TO.N,/SPV1050TTR/Vout_3V3*%
X154500000Y-72500000D03*
D13*
%TO.P,J8,2,Pin_2*%
%TO.N,GND*%
X154500000Y-69960000D03*
%TD*%
D14*
%TO.N,/SPV1050TTR/STORE*%
X138275000Y-80825000D03*
X137225000Y-73325000D03*
%TO.N,/ADP5091/SolarPanel*%
X134950000Y-108925000D03*
X137537500Y-109762500D03*
%TO.N,/BatteryConnectors/BATT_SPV1050*%
X138100000Y-73525000D03*
%TO.N,/ADP5091/BACKUP-BATT_ADP5091*%
X137000000Y-101900000D03*
%TO.N,/ADP5091/BATT_ADP5091*%
X137325000Y-103025000D03*
%TO.N,Net-(R14-Pad2)*%
X133200000Y-109575000D03*
X141800000Y-109800000D03*
%TO.N,Net-(R16-Pad2)*%
X126625000Y-104800000D03*
X130225000Y-104900000D03*
%TD*%
D15*
%TO.N,/SPV1050TTR/STORE*%
X123925000Y-80900000D02*
X138200000Y-80900000D01*
X121385000Y-80900000D02*
X123925000Y-80900000D01*
X138275000Y-78050000D02*
X138275000Y-80825000D01*
X137225000Y-77000000D02*
X138275000Y-78050000D01*
X137225000Y-73325000D02*
X137225000Y-77000000D01*
X138200000Y-80900000D02*
X138275000Y-80825000D01*
%TO.N,/ADP5091/SolarPanel*%
X135625000Y-108925000D02*
X136462500Y-109762500D01*
X134950000Y-108925000D02*
X135625000Y-108925000D01*
X136462500Y-109762500D02*
X137537500Y-109762500D01*
%TO.N,/BatteryConnectors/BATT_SPV1050*%
X136900000Y-72000000D02*
X112500000Y-72000000D01*
X112500000Y-72000000D02*
X112500000Y-69050000D01*
X138100000Y-73200000D02*
X136900000Y-72000000D01*
X138100000Y-73525000D02*
X138100000Y-73200000D01*
X114300000Y-88475000D02*
X114300000Y-81075000D01*
X112500000Y-69050000D02*
X114860000Y-66690000D01*
X114860000Y-66690000D02*
X114860000Y-61600000D01*
X114300000Y-81075000D02*
X112500000Y-79275000D01*
X112500000Y-79275000D02*
X112500000Y-72000000D01*
%TO.N,/ADP5091/BACKUP-BATT_ADP5091*%
X120600000Y-101900000D02*
X119400000Y-100700000D01*
X137000000Y-101900000D02*
X120600000Y-101900000D01*
X119400000Y-100700000D02*
X119400000Y-98000000D01*
%TO.N,/ADP5091/BATT_ADP5091*%
X130350000Y-110000000D02*
X112500000Y-110000000D01*
X137325000Y-103025000D02*
X130350000Y-110000000D01*
%TO.N,Net-(R14-Pad2)*%
X133200000Y-109575000D02*
X134175000Y-110550000D01*
X134175000Y-110550000D02*
X139175000Y-110550000D01*
X139925000Y-109800000D02*
X141800000Y-109800000D01*
X139175000Y-110550000D02*
X139925000Y-109800000D01*
D16*
%TO.N,Net-(R16-Pad2)*%
X130125000Y-104800000D02*
X130225000Y-104900000D01*
X126625000Y-104800000D02*
X130125000Y-104800000D01*
%TD*%
%TA.AperFunction,Conductor*%
%TO.N,GND*%
G36*
X153182072Y-59930914D02*
G01*
X153200000Y-59934075D01*
X153210855Y-59932161D01*
X153217566Y-59932161D01*
X153236398Y-59931044D01*
X153514389Y-59946655D01*
X153528421Y-59948236D01*
X153680154Y-59974017D01*
X153831882Y-59999797D01*
X153845657Y-60002941D01*
X154141433Y-60088153D01*
X154154770Y-60092820D01*
X154328994Y-60164985D01*
X154439147Y-60210612D01*
X154451870Y-60216739D01*
X154721276Y-60365635D01*
X154733224Y-60373142D01*
X154984275Y-60551272D01*
X154995310Y-60560072D01*
X155197759Y-60740991D01*
X155224828Y-60765181D01*
X155234818Y-60775171D01*
X155439928Y-61004690D01*
X155448726Y-61015722D01*
X155626858Y-61266776D01*
X155634365Y-61278724D01*
X155768728Y-61521834D01*
X155783259Y-61548126D01*
X155789388Y-61560853D01*
X155831171Y-61661727D01*
X155907180Y-61845230D01*
X155911847Y-61858567D01*
X155997059Y-62154343D01*
X156000203Y-62168118D01*
X156011179Y-62232718D01*
X156050688Y-62465245D01*
X156051763Y-62471574D01*
X156053345Y-62485611D01*
X156066135Y-62713359D01*
X156068956Y-62763600D01*
X156067839Y-62782434D01*
X156067839Y-62789145D01*
X156065925Y-62800000D01*
X156067839Y-62810854D01*
X156069086Y-62817926D01*
X156071000Y-62839806D01*
X156071000Y-118460194D01*
X156069086Y-118482072D01*
X156065925Y-118500000D01*
X156067839Y-118510855D01*
X156067839Y-118517566D01*
X156068956Y-118536398D01*
X156053345Y-118814385D01*
X156051763Y-118828426D01*
X156000203Y-119131882D01*
X155997059Y-119145657D01*
X155911847Y-119441433D01*
X155907180Y-119454770D01*
X155859708Y-119569378D01*
X155818960Y-119667755D01*
X155789390Y-119739143D01*
X155783261Y-119751870D01*
X155634365Y-120021276D01*
X155626858Y-120033224D01*
X155451823Y-120279913D01*
X155448728Y-120284275D01*
X155439928Y-120295310D01*
X155279516Y-120474812D01*
X155234819Y-120524828D01*
X155224829Y-120534818D01*
X154995310Y-120739928D01*
X154984278Y-120748726D01*
X154733224Y-120926858D01*
X154721276Y-120934365D01*
X154451870Y-121083261D01*
X154439147Y-121089388D01*
X154328994Y-121135015D01*
X154154770Y-121207180D01*
X154141433Y-121211847D01*
X153845657Y-121297059D01*
X153831882Y-121300203D01*
X153680154Y-121325983D01*
X153528421Y-121351764D01*
X153514389Y-121353345D01*
X153236398Y-121368956D01*
X153217566Y-121367839D01*
X153210855Y-121367839D01*
X153200000Y-121365925D01*
X153182072Y-121369086D01*
X153160194Y-121371000D01*
X94239806Y-121371000D01*
X94217928Y-121369086D01*
X94200000Y-121365925D01*
X94189145Y-121367839D01*
X94182434Y-121367839D01*
X94163602Y-121368956D01*
X93885611Y-121353345D01*
X93871579Y-121351764D01*
X93719846Y-121325983D01*
X93568118Y-121300203D01*
X93554343Y-121297059D01*
X93258567Y-121211847D01*
X93245230Y-121207180D01*
X93071006Y-121135015D01*
X92960853Y-121089388D01*
X92948130Y-121083261D01*
X92678724Y-120934365D01*
X92666776Y-120926858D01*
X92415722Y-120748726D01*
X92404690Y-120739928D01*
X92175171Y-120534818D01*
X92165181Y-120524828D01*
X92120484Y-120474812D01*
X91960072Y-120295310D01*
X91951272Y-120284275D01*
X91948177Y-120279913D01*
X91773142Y-120033224D01*
X91765635Y-120021276D01*
X91616739Y-119751870D01*
X91610610Y-119739143D01*
X91581041Y-119667755D01*
X91540292Y-119569378D01*
X91499528Y-119470964D01*
X113726148Y-119470964D01*
X113739424Y-119673522D01*
X113740845Y-119679118D01*
X113740846Y-119679123D01*
X113786289Y-119858053D01*
X113789392Y-119870269D01*
X113791809Y-119875512D01*
X113829010Y-119956208D01*
X113874377Y-120054616D01*
X113991533Y-120220389D01*
X113995675Y-120224424D01*
X114023126Y-120251165D01*
X114136938Y-120362035D01*
X114305720Y-120474812D01*
X114311023Y-120477090D01*
X114311026Y-120477092D01*
X114434416Y-120530104D01*
X114492228Y-120554942D01*
X114565244Y-120571464D01*
X114684579Y-120598467D01*
X114684584Y-120598468D01*
X114690216Y-120599742D01*
X114695987Y-120599969D01*
X114695989Y-120599969D01*
X114755756Y-120602317D01*
X114893053Y-120607712D01*
X114993499Y-120593148D01*
X115088231Y-120579413D01*
X115088236Y-120579412D01*
X115093945Y-120578584D01*
X115099409Y-120576729D01*
X115099414Y-120576728D01*
X115280693Y-120515192D01*
X115280698Y-120515190D01*
X115286165Y-120513334D01*
X115463276Y-120414147D01*
X115525934Y-120362035D01*
X115614913Y-120288031D01*
X115619345Y-120284345D01*
X115749147Y-120128276D01*
X115832677Y-119979123D01*
X115845510Y-119956208D01*
X115845511Y-119956206D01*
X115848334Y-119951165D01*
X115850190Y-119945698D01*
X115850192Y-119945693D01*
X115909505Y-119770964D01*
X136926148Y-119770964D01*
X136939424Y-119973522D01*
X136940845Y-119979118D01*
X136940846Y-119979123D01*
X136961119Y-120058945D01*
X136989392Y-120170269D01*
X136991809Y-120175512D01*
X137029010Y-120256208D01*
X137074377Y-120354616D01*
X137077710Y-120359332D01*
X137159323Y-120474812D01*
X137191533Y-120520389D01*
X137336938Y-120662035D01*
X137505720Y-120774812D01*
X137511023Y-120777090D01*
X137511026Y-120777092D01*
X137599707Y-120815192D01*
X137692228Y-120854942D01*
X137765244Y-120871464D01*
X137884579Y-120898467D01*
X137884584Y-120898468D01*
X137890216Y-120899742D01*
X137895987Y-120899969D01*
X137895989Y-120899969D01*
X137955756Y-120902317D01*
X138093053Y-120907712D01*
X138193499Y-120893148D01*
X138288231Y-120879413D01*
X138288236Y-120879412D01*
X138293945Y-120878584D01*
X138299409Y-120876729D01*
X138299414Y-120876728D01*
X138480693Y-120815192D01*
X138480698Y-120815190D01*
X138486165Y-120813334D01*
X138663276Y-120714147D01*
X138725934Y-120662035D01*
X138814913Y-120588031D01*
X138819345Y-120584345D01*
X138949147Y-120428276D01*
X139023605Y-120295322D01*
X139045510Y-120256208D01*
X139045511Y-120256206D01*
X139048334Y-120251165D01*
X139050190Y-120245698D01*
X139050192Y-120245693D01*
X139111728Y-120064414D01*
X139111729Y-120064409D01*
X139113584Y-120058945D01*
X139114412Y-120053236D01*
X139114413Y-120053231D01*
X139131991Y-119931996D01*
X139142712Y-119858053D01*
X139144232Y-119800000D01*
X139132610Y-119673522D01*
X139126187Y-119603613D01*
X139126186Y-119603610D01*
X139125658Y-119597859D01*
X139124090Y-119592299D01*
X139072125Y-119408046D01*
X139072124Y-119408044D01*
X139070557Y-119402487D01*
X139059978Y-119381033D01*
X138983331Y-119225609D01*
X138980776Y-119220428D01*
X138859320Y-119057779D01*
X138710258Y-118919987D01*
X138705375Y-118916906D01*
X138705371Y-118916903D01*
X138543464Y-118814748D01*
X138538581Y-118811667D01*
X138350039Y-118736446D01*
X138344379Y-118735320D01*
X138344375Y-118735319D01*
X138156613Y-118697971D01*
X138156610Y-118697971D01*
X138150946Y-118696844D01*
X138145171Y-118696768D01*
X138145167Y-118696768D01*
X138043793Y-118695441D01*
X137947971Y-118694187D01*
X137942274Y-118695166D01*
X137942273Y-118695166D01*
X137753607Y-118727585D01*
X137747910Y-118728564D01*
X137557463Y-118798824D01*
X137383010Y-118902612D01*
X137378670Y-118906418D01*
X137378666Y-118906421D01*
X137234733Y-119032648D01*
X137230392Y-119036455D01*
X137104720Y-119195869D01*
X137102031Y-119200980D01*
X137102029Y-119200983D01*
X137089073Y-119225609D01*
X137010203Y-119375515D01*
X136970399Y-119503704D01*
X136953524Y-119558053D01*
X136950007Y-119569378D01*
X136926148Y-119770964D01*
X115909505Y-119770964D01*
X115911728Y-119764414D01*
X115911729Y-119764409D01*
X115913584Y-119758945D01*
X115914412Y-119753236D01*
X115914413Y-119753231D01*
X115936940Y-119597859D01*
X115942712Y-119558053D01*
X115944232Y-119500000D01*
X115925658Y-119297859D01*
X115924090Y-119292299D01*
X115872125Y-119108046D01*
X115872124Y-119108044D01*
X115870557Y-119102487D01*
X115859978Y-119081033D01*
X115783331Y-118925609D01*
X115780776Y-118920428D01*
X115770317Y-118906421D01*
X115670555Y-118772825D01*
X115659320Y-118757779D01*
X115521248Y-118630146D01*
X115514503Y-118623911D01*
X115510258Y-118619987D01*
X115505375Y-118616906D01*
X115505371Y-118616903D01*
X115343464Y-118514748D01*
X115338581Y-118511667D01*
X115150039Y-118436446D01*
X115144379Y-118435320D01*
X115144375Y-118435319D01*
X114956613Y-118397971D01*
X114956610Y-118397971D01*
X114950946Y-118396844D01*
X114945171Y-118396768D01*
X114945167Y-118396768D01*
X114843793Y-118395441D01*
X114747971Y-118394187D01*
X114742274Y-118395166D01*
X114742273Y-118395166D01*
X114620969Y-118416010D01*
X114547910Y-118428564D01*
X114357463Y-118498824D01*
X114183010Y-118602612D01*
X114178670Y-118606418D01*
X114178666Y-118606421D01*
X114068737Y-118702827D01*
X114030392Y-118736455D01*
X113904720Y-118895869D01*
X113902031Y-118900980D01*
X113902029Y-118900983D01*
X113889966Y-118923911D01*
X113810203Y-119075515D01*
X113750007Y-119269378D01*
X113726148Y-119470964D01*
X91499528Y-119470964D01*
X91492820Y-119454770D01*
X91488153Y-119441433D01*
X91402941Y-119145657D01*
X91399797Y-119131882D01*
X91348237Y-118828426D01*
X91346655Y-118814385D01*
X91331044Y-118536398D01*
X91332161Y-118517566D01*
X91332161Y-118510855D01*
X91334075Y-118500000D01*
X91330914Y-118482072D01*
X91329000Y-118460194D01*
X91329000Y-116728435D01*
X126440812Y-116728435D01*
X126456937Y-117008099D01*
X126457762Y-117012306D01*
X126457763Y-117012311D01*
X126470322Y-117076324D01*
X126510868Y-117282986D01*
X126512255Y-117287037D01*
X126583099Y-117493955D01*
X126601606Y-117548011D01*
X126629378Y-117603229D01*
X126702326Y-117748269D01*
X126727473Y-117798269D01*
X126886139Y-118029130D01*
X126889020Y-118032296D01*
X127066441Y-118227279D01*
X127074669Y-118236322D01*
X127289573Y-118416010D01*
X127293199Y-118418285D01*
X127293201Y-118418286D01*
X127348661Y-118453076D01*
X127526876Y-118564869D01*
X127530778Y-118566631D01*
X127530782Y-118566633D01*
X127778273Y-118678380D01*
X127778277Y-118678382D01*
X127782185Y-118680146D01*
X127786305Y-118681366D01*
X127786304Y-118681366D01*
X128046664Y-118758488D01*
X128046668Y-118758489D01*
X128050777Y-118759706D01*
X128055014Y-118760354D01*
X128055017Y-118760355D01*
X128139874Y-118773340D01*
X128327682Y-118802079D01*
X128470295Y-118804319D01*
X128603484Y-118806412D01*
X128603490Y-118806412D01*
X128607775Y-118806479D01*
X128885875Y-118772825D01*
X129126469Y-118709706D01*
X129152690Y-118702827D01*
X129152691Y-118702827D01*
X129156833Y-118701740D01*
X129415638Y-118594540D01*
X129463396Y-118566633D01*
X129653801Y-118455369D01*
X129653802Y-118455369D01*
X129657499Y-118453208D01*
X129729480Y-118396768D01*
X129874569Y-118283003D01*
X129877941Y-118280359D01*
X130072886Y-118079192D01*
X130075419Y-118075744D01*
X130075423Y-118075739D01*
X130236187Y-117856884D01*
X130238725Y-117853429D01*
X130267919Y-117799661D01*
X130370341Y-117611023D01*
X130370342Y-117611021D01*
X130372391Y-117607247D01*
X130471409Y-117345203D01*
X130533948Y-117072146D01*
X130558849Y-116793127D01*
X130559301Y-116750000D01*
X130559001Y-116745595D01*
X130554423Y-116678435D01*
X131440812Y-116678435D01*
X131456937Y-116958099D01*
X131457762Y-116962306D01*
X131457763Y-116962311D01*
X131470322Y-117026324D01*
X131510868Y-117232986D01*
X131601606Y-117498011D01*
X131727473Y-117748269D01*
X131886139Y-117979130D01*
X132074669Y-118186322D01*
X132289573Y-118366010D01*
X132293199Y-118368285D01*
X132293201Y-118368286D01*
X132348661Y-118403076D01*
X132526876Y-118514869D01*
X132530778Y-118516631D01*
X132530782Y-118516633D01*
X132778273Y-118628380D01*
X132778277Y-118628382D01*
X132782185Y-118630146D01*
X132786305Y-118631366D01*
X132786304Y-118631366D01*
X133046664Y-118708488D01*
X133046668Y-118708489D01*
X133050777Y-118709706D01*
X133055014Y-118710354D01*
X133055017Y-118710355D01*
X133288518Y-118746086D01*
X133327682Y-118752079D01*
X133470296Y-118754319D01*
X133603484Y-118756412D01*
X133603490Y-118756412D01*
X133607775Y-118756479D01*
X133885875Y-118722825D01*
X134156833Y-118651740D01*
X134415638Y-118544540D01*
X134454504Y-118521829D01*
X134653801Y-118405369D01*
X134653802Y-118405369D01*
X134657499Y-118403208D01*
X134877941Y-118230359D01*
X135072886Y-118029192D01*
X135075419Y-118025744D01*
X135075423Y-118025739D01*
X135236187Y-117806884D01*
X135238725Y-117803429D01*
X135266755Y-117751804D01*
X135370341Y-117561023D01*
X135370342Y-117561021D01*
X135372391Y-117557247D01*
X135471409Y-117295203D01*
X135533948Y-117022146D01*
X135558849Y-116743127D01*
X135559301Y-116700000D01*
X135557540Y-116674164D01*
X135540540Y-116424798D01*
X135540539Y-116424792D01*
X135540248Y-116420521D01*
X135483442Y-116146213D01*
X135389933Y-115882153D01*
X135261452Y-115633226D01*
X135248530Y-115614839D01*
X135102844Y-115407550D01*
X135102843Y-115407549D01*
X135100377Y-115404040D01*
X134961449Y-115254534D01*
X134912606Y-115201973D01*
X134912605Y-115201972D01*
X134909689Y-115198834D01*
X134895550Y-115187261D01*
X134757321Y-115074123D01*
X134692914Y-115021407D01*
X134454066Y-114875040D01*
X134197563Y-114762443D01*
X134178210Y-114756930D01*
X134103680Y-114735700D01*
X133928153Y-114685700D01*
X133923911Y-114685096D01*
X133923905Y-114685095D01*
X133718548Y-114655868D01*
X133650819Y-114646229D01*
X133503708Y-114645459D01*
X133374981Y-114644785D01*
X133374975Y-114644785D01*
X133370695Y-114644763D01*
X133366451Y-114645322D01*
X133366447Y-114645322D01*
X133244326Y-114661400D01*
X133092964Y-114681327D01*
X133088824Y-114682460D01*
X133088822Y-114682460D01*
X132889907Y-114736877D01*
X132822765Y-114755245D01*
X132565097Y-114865149D01*
X132481554Y-114915149D01*
X132328411Y-115006803D01*
X132328407Y-115006806D01*
X132324729Y-115009007D01*
X132321386Y-115011685D01*
X132321382Y-115011688D01*
X132312046Y-115019168D01*
X132106109Y-115184155D01*
X132103165Y-115187257D01*
X132103161Y-115187261D01*
X131916231Y-115384243D01*
X131913281Y-115387352D01*
X131749815Y-115614839D01*
X131618735Y-115862407D01*
X131617263Y-115866430D01*
X131617261Y-115866434D01*
X131523941Y-116121442D01*
X131522466Y-116125473D01*
X131462790Y-116399171D01*
X131440812Y-116678435D01*
X130554423Y-116678435D01*
X130540540Y-116474798D01*
X130540539Y-116474792D01*
X130540248Y-116470521D01*
X130529025Y-116416324D01*
X130484311Y-116200410D01*
X130483442Y-116196213D01*
X130389933Y-115932153D01*
X130261452Y-115683226D01*
X130248530Y-115664839D01*
X130102844Y-115457550D01*
X130102843Y-115457549D01*
X130100377Y-115454040D01*
X129909689Y-115248834D01*
X129895550Y-115237261D01*
X129696232Y-115074123D01*
X129692914Y-115071407D01*
X129454066Y-114925040D01*
X129197563Y-114812443D01*
X129178210Y-114806930D01*
X129147881Y-114798291D01*
X128928153Y-114735700D01*
X128923911Y-114735096D01*
X128923905Y-114735095D01*
X128718548Y-114705868D01*
X128650819Y-114696229D01*
X128503708Y-114695459D01*
X128374981Y-114694785D01*
X128374975Y-114694785D01*
X128370695Y-114694763D01*
X128366451Y-114695322D01*
X128366447Y-114695322D01*
X128244326Y-114711400D01*
X128092964Y-114731327D01*
X128088824Y-114732460D01*
X128088822Y-114732460D01*
X127826910Y-114804111D01*
X127822765Y-114805245D01*
X127565097Y-114915149D01*
X127419747Y-115002140D01*
X127328411Y-115056803D01*
X127328407Y-115056806D01*
X127324729Y-115059007D01*
X127321386Y-115061685D01*
X127321382Y-115061688D01*
X127312046Y-115069168D01*
X127106109Y-115234155D01*
X127103165Y-115237257D01*
X127103161Y-115237261D01*
X126944893Y-115404040D01*
X126913281Y-115437352D01*
X126749815Y-115664839D01*
X126747811Y-115668624D01*
X126645209Y-115862407D01*
X126618735Y-115912407D01*
X126617263Y-115916430D01*
X126617261Y-115916434D01*
X126540763Y-116125473D01*
X126522466Y-116175473D01*
X126462790Y-116449171D01*
X126440812Y-116728435D01*
X91329000Y-116728435D01*
X91329000Y-109978435D01*
X110440812Y-109978435D01*
X110456937Y-110258099D01*
X110457762Y-110262306D01*
X110457763Y-110262311D01*
X110481701Y-110384320D01*
X110510868Y-110532986D01*
X110512255Y-110537037D01*
X110598761Y-110789700D01*
X110601606Y-110798011D01*
X110727473Y-111048269D01*
X110886139Y-111279130D01*
X111074669Y-111486322D01*
X111289573Y-111666010D01*
X111293199Y-111668285D01*
X111293201Y-111668286D01*
X111348661Y-111703076D01*
X111526876Y-111814869D01*
X111530778Y-111816631D01*
X111530782Y-111816633D01*
X111778273Y-111928380D01*
X111778277Y-111928382D01*
X111782185Y-111930146D01*
X111786305Y-111931366D01*
X111786304Y-111931366D01*
X112046664Y-112008488D01*
X112046668Y-112008489D01*
X112050777Y-112009706D01*
X112055014Y-112010354D01*
X112055017Y-112010355D01*
X112139874Y-112023340D01*
X112327682Y-112052079D01*
X112470296Y-112054319D01*
X112603484Y-112056412D01*
X112603490Y-112056412D01*
X112607775Y-112056479D01*
X112885875Y-112022825D01*
X113156833Y-111951740D01*
X113415638Y-111844540D01*
X113463396Y-111816633D01*
X113653801Y-111705369D01*
X113653802Y-111705369D01*
X113657499Y-111703208D01*
X113877941Y-111530359D01*
X114072886Y-111329192D01*
X114075419Y-111325744D01*
X114075423Y-111325739D01*
X114236187Y-111106884D01*
X114238725Y-111103429D01*
X114266755Y-111051804D01*
X114370341Y-110861023D01*
X114370342Y-110861021D01*
X114372391Y-110857247D01*
X114471409Y-110595203D01*
X114498397Y-110477370D01*
X114533103Y-110415434D01*
X114595784Y-110382094D01*
X114621217Y-110379500D01*
X130296080Y-110379500D01*
X130320028Y-110382049D01*
X130321693Y-110382128D01*
X130331876Y-110384320D01*
X130342217Y-110383096D01*
X130365223Y-110380373D01*
X130371154Y-110380023D01*
X130371146Y-110379928D01*
X130376324Y-110379500D01*
X130381524Y-110379500D01*
X130386653Y-110378646D01*
X130386656Y-110378646D01*
X130400565Y-110376331D01*
X130406443Y-110375494D01*
X130447001Y-110370694D01*
X130447002Y-110370694D01*
X130457341Y-110369470D01*
X130465593Y-110365507D01*
X130474626Y-110364004D01*
X130483795Y-110359057D01*
X130483797Y-110359056D01*
X130516693Y-110341306D01*
X130519734Y-110339665D01*
X130525025Y-110336969D01*
X130564082Y-110318215D01*
X130564086Y-110318212D01*
X130571232Y-110314781D01*
X130575508Y-110311186D01*
X130577431Y-110309263D01*
X130579363Y-110307491D01*
X130579442Y-110307448D01*
X130579555Y-110307572D01*
X130580095Y-110307096D01*
X130585814Y-110304010D01*
X130622417Y-110264413D01*
X130625846Y-110260848D01*
X131311694Y-109575000D01*
X132640715Y-109575000D01*
X132641793Y-109583188D01*
X132646343Y-109617746D01*
X132659772Y-109719754D01*
X132715645Y-109854642D01*
X132804526Y-109970474D01*
X132811076Y-109975500D01*
X132811079Y-109975503D01*
X132913804Y-110054327D01*
X132920357Y-110059355D01*
X133055246Y-110115228D01*
X133183612Y-110132128D01*
X133248538Y-110160849D01*
X133256260Y-110167954D01*
X133868522Y-110780216D01*
X133883664Y-110798964D01*
X133884779Y-110800189D01*
X133890429Y-110808940D01*
X133898607Y-110815387D01*
X133898609Y-110815389D01*
X133916800Y-110829729D01*
X133921244Y-110833678D01*
X133921306Y-110833604D01*
X133925263Y-110836957D01*
X133928944Y-110840638D01*
X133944654Y-110851865D01*
X133949380Y-110855413D01*
X133989647Y-110887156D01*
X133998284Y-110890189D01*
X134005734Y-110895513D01*
X134015710Y-110898497D01*
X134015711Y-110898497D01*
X134031046Y-110903083D01*
X134054849Y-110910202D01*
X134060486Y-110912034D01*
X134101199Y-110926331D01*
X134108851Y-110929018D01*
X134114416Y-110929500D01*
X134117124Y-110929500D01*
X134119758Y-110929614D01*
X134119856Y-110929643D01*
X134119849Y-110929807D01*
X134120553Y-110929851D01*
X134126778Y-110931713D01*
X134180635Y-110929597D01*
X134185582Y-110929500D01*
X139121080Y-110929500D01*
X139145028Y-110932049D01*
X139146693Y-110932128D01*
X139156876Y-110934320D01*
X139167217Y-110933096D01*
X139190223Y-110930373D01*
X139196154Y-110930023D01*
X139196146Y-110929928D01*
X139201324Y-110929500D01*
X139206524Y-110929500D01*
X139211653Y-110928646D01*
X139211656Y-110928646D01*
X139225565Y-110926331D01*
X139231443Y-110925494D01*
X139272001Y-110920694D01*
X139272002Y-110920694D01*
X139282341Y-110919470D01*
X139290593Y-110915507D01*
X139299626Y-110914004D01*
X139308795Y-110909057D01*
X139308797Y-110909056D01*
X139344732Y-110889666D01*
X139350025Y-110886969D01*
X139389082Y-110868215D01*
X139389086Y-110868212D01*
X139396232Y-110864781D01*
X139400508Y-110861186D01*
X139402431Y-110859263D01*
X139404363Y-110857491D01*
X139404442Y-110857448D01*
X139404555Y-110857572D01*
X139405095Y-110857096D01*
X139410814Y-110854010D01*
X139447417Y-110814413D01*
X139450846Y-110810848D01*
X140045289Y-110216405D01*
X140107601Y-110182379D01*
X140134384Y-110179500D01*
X141340938Y-110179500D01*
X141409059Y-110199502D01*
X141417626Y-110205526D01*
X141520357Y-110284355D01*
X141655246Y-110340228D01*
X141800000Y-110359285D01*
X141808188Y-110358207D01*
X141936566Y-110341306D01*
X141944754Y-110340228D01*
X142079643Y-110284355D01*
X142086196Y-110279327D01*
X142188921Y-110200503D01*
X142188924Y-110200500D01*
X142195474Y-110195474D01*
X142284355Y-110079642D01*
X142291450Y-110062515D01*
X142337069Y-109952380D01*
X142340228Y-109944754D01*
X142359285Y-109800000D01*
X142340228Y-109655246D01*
X142284355Y-109520358D01*
X142219255Y-109435518D01*
X142200501Y-109411077D01*
X142200500Y-109411076D01*
X142195474Y-109404526D01*
X142188924Y-109399500D01*
X142188921Y-109399497D01*
X142086196Y-109320673D01*
X142086194Y-109320672D01*
X142079643Y-109315645D01*
X141944754Y-109259772D01*
X141800000Y-109240715D01*
X141791812Y-109241793D01*
X141663432Y-109258694D01*
X141663430Y-109258695D01*
X141655246Y-109259772D01*
X141618519Y-109274985D01*
X141527986Y-109312485D01*
X141527984Y-109312486D01*
X141520358Y-109315645D01*
X141507511Y-109325503D01*
X141417640Y-109394463D01*
X141351419Y-109420063D01*
X141340936Y-109420500D01*
X139978920Y-109420500D01*
X139954972Y-109417951D01*
X139953307Y-109417872D01*
X139943124Y-109415680D01*
X139932783Y-109416904D01*
X139909777Y-109419627D01*
X139903846Y-109419977D01*
X139903854Y-109420072D01*
X139898676Y-109420500D01*
X139893476Y-109420500D01*
X139888347Y-109421354D01*
X139888344Y-109421354D01*
X139874435Y-109423669D01*
X139868557Y-109424506D01*
X139827999Y-109429306D01*
X139827998Y-109429306D01*
X139817659Y-109430530D01*
X139809407Y-109434493D01*
X139800374Y-109435996D01*
X139755227Y-109460356D01*
X139749963Y-109463037D01*
X139703768Y-109485220D01*
X139699492Y-109488814D01*
X139697552Y-109490754D01*
X139695641Y-109492507D01*
X139695551Y-109492556D01*
X139695439Y-109492433D01*
X139694904Y-109492905D01*
X139689186Y-109495990D01*
X139682119Y-109503635D01*
X139652584Y-109535586D01*
X139649154Y-109539152D01*
X139054711Y-110133595D01*
X138992399Y-110167621D01*
X138965616Y-110170500D01*
X138157260Y-110170500D01*
X138089139Y-110150498D01*
X138042646Y-110096842D01*
X138032542Y-110026568D01*
X138040852Y-109996281D01*
X138074567Y-109914887D01*
X138074568Y-109914882D01*
X138077728Y-109907254D01*
X138084655Y-109854642D01*
X138095707Y-109770688D01*
X138096785Y-109762500D01*
X138092161Y-109727380D01*
X138078806Y-109625932D01*
X138078805Y-109625930D01*
X138077728Y-109617746D01*
X138030461Y-109503635D01*
X138025015Y-109490486D01*
X138025014Y-109490484D01*
X138021855Y-109482858D01*
X137932974Y-109367026D01*
X137926424Y-109362000D01*
X137926421Y-109361997D01*
X137823696Y-109283173D01*
X137823694Y-109283172D01*
X137817143Y-109278145D01*
X137682254Y-109222272D01*
X137537500Y-109203215D01*
X137529312Y-109204293D01*
X137400932Y-109221194D01*
X137400930Y-109221195D01*
X137392746Y-109222272D01*
X137348221Y-109240715D01*
X137265486Y-109274985D01*
X137265484Y-109274986D01*
X137257858Y-109278145D01*
X137222942Y-109304937D01*
X137155140Y-109356963D01*
X137088919Y-109382563D01*
X137078436Y-109383000D01*
X136671884Y-109383000D01*
X136603763Y-109362998D01*
X136582789Y-109346095D01*
X135931478Y-108694784D01*
X135916336Y-108676036D01*
X135915221Y-108674811D01*
X135909571Y-108666060D01*
X135901393Y-108659613D01*
X135901391Y-108659611D01*
X135883200Y-108645271D01*
X135878759Y-108641325D01*
X135878697Y-108641398D01*
X135874733Y-108638039D01*
X135871056Y-108634362D01*
X135855308Y-108623108D01*
X135850638Y-108619602D01*
X135810353Y-108587844D01*
X135801719Y-108584812D01*
X135794266Y-108579486D01*
X135745150Y-108564797D01*
X135739508Y-108562964D01*
X135698633Y-108548610D01*
X135698632Y-108548610D01*
X135691149Y-108545982D01*
X135685584Y-108545500D01*
X135682876Y-108545500D01*
X135680242Y-108545386D01*
X135680144Y-108545357D01*
X135680151Y-108545193D01*
X135679447Y-108545149D01*
X135673222Y-108543287D01*
X135619365Y-108545403D01*
X135614418Y-108545500D01*
X135409062Y-108545500D01*
X135340941Y-108525498D01*
X135332374Y-108519474D01*
X135229643Y-108440645D01*
X135094754Y-108384772D01*
X135061310Y-108380369D01*
X134958188Y-108366793D01*
X134950000Y-108365715D01*
X134941812Y-108366793D01*
X134813432Y-108383694D01*
X134813430Y-108383695D01*
X134805246Y-108384772D01*
X134757430Y-108404578D01*
X134677986Y-108437485D01*
X134677984Y-108437486D01*
X134670358Y-108440645D01*
X134554526Y-108529526D01*
X134465645Y-108645358D01*
X134462486Y-108652984D01*
X134462485Y-108652986D01*
X134448250Y-108687352D01*
X134409772Y-108780246D01*
X134390715Y-108925000D01*
X134391793Y-108933188D01*
X134405583Y-109037932D01*
X134409772Y-109069754D01*
X134420508Y-109095672D01*
X134458004Y-109186194D01*
X134465645Y-109204642D01*
X134554526Y-109320474D01*
X134561076Y-109325500D01*
X134561079Y-109325503D01*
X134663804Y-109404327D01*
X134670357Y-109409355D01*
X134805246Y-109465228D01*
X134950000Y-109484285D01*
X134958188Y-109483207D01*
X135086566Y-109466306D01*
X135094754Y-109465228D01*
X135229643Y-109409355D01*
X135332360Y-109330537D01*
X135398578Y-109304937D01*
X135409062Y-109304500D01*
X135415616Y-109304500D01*
X135483737Y-109324502D01*
X135504711Y-109341405D01*
X136118711Y-109955405D01*
X136152737Y-110017717D01*
X136147672Y-110088532D01*
X136105125Y-110145368D01*
X136038605Y-110170179D01*
X136029616Y-110170500D01*
X134384384Y-110170500D01*
X134316263Y-110150498D01*
X134295289Y-110133595D01*
X133792954Y-109631260D01*
X133758928Y-109568948D01*
X133757127Y-109558611D01*
X133754566Y-109539152D01*
X133744975Y-109466306D01*
X133741306Y-109438432D01*
X133741305Y-109438430D01*
X133740228Y-109430246D01*
X133705371Y-109346095D01*
X133687515Y-109302986D01*
X133687514Y-109302984D01*
X133684355Y-109295358D01*
X133614746Y-109204642D01*
X133600501Y-109186077D01*
X133600500Y-109186076D01*
X133595474Y-109179526D01*
X133588924Y-109174500D01*
X133588921Y-109174497D01*
X133486196Y-109095673D01*
X133486194Y-109095672D01*
X133479643Y-109090645D01*
X133344754Y-109034772D01*
X133200000Y-109015715D01*
X133191812Y-109016793D01*
X133063432Y-109033694D01*
X133063430Y-109033695D01*
X133055246Y-109034772D01*
X133007430Y-109054578D01*
X132927986Y-109087485D01*
X132927984Y-109087486D01*
X132920358Y-109090645D01*
X132804526Y-109179526D01*
X132715645Y-109295358D01*
X132712486Y-109302984D01*
X132712485Y-109302986D01*
X132694629Y-109346095D01*
X132659772Y-109430246D01*
X132658695Y-109438430D01*
X132658694Y-109438432D01*
X132651585Y-109492433D01*
X132640715Y-109575000D01*
X131311694Y-109575000D01*
X134233259Y-106653435D01*
X142915812Y-106653435D01*
X142931937Y-106933099D01*
X142932762Y-106937306D01*
X142932763Y-106937311D01*
X142945322Y-107001324D01*
X142985868Y-107207986D01*
X143076606Y-107473011D01*
X143202473Y-107723269D01*
X143310013Y-107879741D01*
X143356125Y-107946834D01*
X143361139Y-107954130D01*
X143549669Y-108161322D01*
X143764573Y-108341010D01*
X143768199Y-108343285D01*
X143768201Y-108343286D01*
X143823661Y-108378076D01*
X144001876Y-108489869D01*
X144005778Y-108491631D01*
X144005782Y-108491633D01*
X144253273Y-108603380D01*
X144253277Y-108603382D01*
X144257185Y-108605146D01*
X144312095Y-108621411D01*
X144521664Y-108683488D01*
X144521668Y-108683489D01*
X144525777Y-108684706D01*
X144530014Y-108685354D01*
X144530017Y-108685355D01*
X144675061Y-108707550D01*
X144802682Y-108727079D01*
X144945296Y-108729319D01*
X145078484Y-108731412D01*
X145078490Y-108731412D01*
X145082775Y-108731479D01*
X145360875Y-108697825D01*
X145631833Y-108626740D01*
X145890638Y-108519540D01*
X145920701Y-108501973D01*
X146128801Y-108380369D01*
X146128802Y-108380369D01*
X146132499Y-108378208D01*
X146352941Y-108205359D01*
X146547886Y-108004192D01*
X146550419Y-108000744D01*
X146550423Y-108000739D01*
X146705421Y-107789734D01*
X146713725Y-107778429D01*
X146741755Y-107726804D01*
X146845341Y-107536023D01*
X146845342Y-107536021D01*
X146847391Y-107532247D01*
X146946409Y-107270203D01*
X147008948Y-106997146D01*
X147033849Y-106718127D01*
X147034301Y-106675000D01*
X147015248Y-106395521D01*
X146958442Y-106121213D01*
X146864933Y-105857153D01*
X146848303Y-105824933D01*
X153395500Y-105824933D01*
X153395501Y-107575066D01*
X153410266Y-107649301D01*
X153466516Y-107733484D01*
X153550699Y-107789734D01*
X153624933Y-107804500D01*
X154499858Y-107804500D01*
X155375066Y-107804499D01*
X155410818Y-107797388D01*
X155437126Y-107792156D01*
X155437128Y-107792155D01*
X155449301Y-107789734D01*
X155459621Y-107782839D01*
X155459622Y-107782838D01*
X155523168Y-107740377D01*
X155533484Y-107733484D01*
X155589734Y-107649301D01*
X155604500Y-107575067D01*
X155604499Y-105824934D01*
X155589734Y-105750699D01*
X155533484Y-105666516D01*
X155449301Y-105610266D01*
X155375067Y-105595500D01*
X154500142Y-105595500D01*
X153624934Y-105595501D01*
X153589182Y-105602612D01*
X153562874Y-105607844D01*
X153562872Y-105607845D01*
X153550699Y-105610266D01*
X153540379Y-105617161D01*
X153540378Y-105617162D01*
X153479985Y-105657516D01*
X153466516Y-105666516D01*
X153410266Y-105750699D01*
X153395500Y-105824933D01*
X146848303Y-105824933D01*
X146736452Y-105608226D01*
X146728357Y-105596707D01*
X146577844Y-105382550D01*
X146577843Y-105382549D01*
X146575377Y-105379040D01*
X146401017Y-105191405D01*
X146387606Y-105176973D01*
X146387605Y-105176972D01*
X146384689Y-105173834D01*
X146370550Y-105162261D01*
X146226983Y-105044754D01*
X146167914Y-104996407D01*
X145929066Y-104850040D01*
X145672563Y-104737443D01*
X145653210Y-104731930D01*
X145622881Y-104723291D01*
X145403153Y-104660700D01*
X145398911Y-104660096D01*
X145398905Y-104660095D01*
X145193548Y-104630868D01*
X145125819Y-104621229D01*
X144978708Y-104620459D01*
X144849981Y-104619785D01*
X144849975Y-104619785D01*
X144845695Y-104619763D01*
X144841451Y-104620322D01*
X144841447Y-104620322D01*
X144719326Y-104636400D01*
X144567964Y-104656327D01*
X144563824Y-104657460D01*
X144563822Y-104657460D01*
X144541992Y-104663432D01*
X144297765Y-104730245D01*
X144040097Y-104840149D01*
X143953775Y-104891812D01*
X143803411Y-104981803D01*
X143803407Y-104981806D01*
X143799729Y-104984007D01*
X143796386Y-104986685D01*
X143796382Y-104986688D01*
X143714386Y-105052380D01*
X143581109Y-105159155D01*
X143578165Y-105162257D01*
X143578161Y-105162261D01*
X143409276Y-105340228D01*
X143388281Y-105362352D01*
X143224815Y-105589839D01*
X143222811Y-105593624D01*
X143103554Y-105818863D01*
X143093735Y-105837407D01*
X142997466Y-106100473D01*
X142937790Y-106374171D01*
X142915812Y-106653435D01*
X134233259Y-106653435D01*
X137268740Y-103617954D01*
X137331052Y-103583928D01*
X137341380Y-103582129D01*
X137469754Y-103565228D01*
X137604643Y-103509355D01*
X137611196Y-103504327D01*
X137713921Y-103425503D01*
X137713924Y-103425500D01*
X137720474Y-103420474D01*
X137809355Y-103304642D01*
X137865228Y-103169754D01*
X137876671Y-103082839D01*
X137883207Y-103033188D01*
X137884285Y-103025000D01*
X137865228Y-102880246D01*
X137809355Y-102745358D01*
X137764915Y-102687442D01*
X137725501Y-102636077D01*
X137725500Y-102636076D01*
X137720474Y-102629526D01*
X137713924Y-102624500D01*
X137713921Y-102624497D01*
X137611196Y-102545673D01*
X137611194Y-102545672D01*
X137604643Y-102540645D01*
X137523406Y-102506995D01*
X137477386Y-102487933D01*
X137477384Y-102487932D01*
X137469754Y-102484772D01*
X137466948Y-102484403D01*
X137408474Y-102448760D01*
X137377452Y-102384899D01*
X137385881Y-102314405D01*
X137401746Y-102287301D01*
X137479325Y-102186198D01*
X137479327Y-102186195D01*
X137484355Y-102179642D01*
X137497063Y-102148964D01*
X137537069Y-102052380D01*
X137540228Y-102044754D01*
X137546447Y-101997520D01*
X137548959Y-101978435D01*
X142940812Y-101978435D01*
X142956937Y-102258099D01*
X142957762Y-102262306D01*
X142957763Y-102262311D01*
X142991097Y-102432213D01*
X143010868Y-102532986D01*
X143012255Y-102537037D01*
X143086191Y-102752986D01*
X143101606Y-102798011D01*
X143227473Y-103048269D01*
X143386139Y-103279130D01*
X143574669Y-103486322D01*
X143789573Y-103666010D01*
X143793199Y-103668285D01*
X143793201Y-103668286D01*
X143848661Y-103703076D01*
X144026876Y-103814869D01*
X144030778Y-103816631D01*
X144030782Y-103816633D01*
X144278273Y-103928380D01*
X144278277Y-103928382D01*
X144282185Y-103930146D01*
X144286305Y-103931366D01*
X144286304Y-103931366D01*
X144546664Y-104008488D01*
X144546668Y-104008489D01*
X144550777Y-104009706D01*
X144555014Y-104010354D01*
X144555017Y-104010355D01*
X144639874Y-104023340D01*
X144827682Y-104052079D01*
X144970295Y-104054319D01*
X145103484Y-104056412D01*
X145103490Y-104056412D01*
X145107775Y-104056479D01*
X145385875Y-104022825D01*
X145656833Y-103951740D01*
X145915638Y-103844540D01*
X145963396Y-103816633D01*
X146153801Y-103705369D01*
X146153802Y-103705369D01*
X146157499Y-103703208D01*
X146377941Y-103530359D01*
X146572886Y-103329192D01*
X146575419Y-103325744D01*
X146575423Y-103325739D01*
X146736187Y-103106884D01*
X146738725Y-103103429D01*
X146746161Y-103089734D01*
X146870341Y-102861023D01*
X146870342Y-102861021D01*
X146872391Y-102857247D01*
X146971409Y-102595203D01*
X147033948Y-102322146D01*
X147058849Y-102043127D01*
X147059301Y-102000000D01*
X147052484Y-101900000D01*
X147040540Y-101724798D01*
X147040539Y-101724792D01*
X147040248Y-101720521D01*
X146983442Y-101446213D01*
X146889933Y-101182153D01*
X146860400Y-101124933D01*
X153395500Y-101124933D01*
X153395501Y-102875066D01*
X153410266Y-102949301D01*
X153466516Y-103033484D01*
X153550699Y-103089734D01*
X153624933Y-103104500D01*
X154499858Y-103104500D01*
X155375066Y-103104499D01*
X155410818Y-103097388D01*
X155437126Y-103092156D01*
X155437128Y-103092155D01*
X155449301Y-103089734D01*
X155459621Y-103082839D01*
X155459622Y-103082838D01*
X155523168Y-103040377D01*
X155533484Y-103033484D01*
X155589734Y-102949301D01*
X155604500Y-102875067D01*
X155604499Y-101124934D01*
X155589734Y-101050699D01*
X155533484Y-100966516D01*
X155465713Y-100921232D01*
X155459620Y-100917161D01*
X155449301Y-100910266D01*
X155375067Y-100895500D01*
X154500142Y-100895500D01*
X153624934Y-100895501D01*
X153589182Y-100902612D01*
X153562874Y-100907844D01*
X153562872Y-100907845D01*
X153550699Y-100910266D01*
X153540379Y-100917161D01*
X153540378Y-100917162D01*
X153534287Y-100921232D01*
X153466516Y-100966516D01*
X153410266Y-101050699D01*
X153395500Y-101124933D01*
X146860400Y-101124933D01*
X146782538Y-100974079D01*
X146763417Y-100937033D01*
X146763417Y-100937032D01*
X146761452Y-100933226D01*
X146758494Y-100929016D01*
X146602844Y-100707550D01*
X146602843Y-100707549D01*
X146600377Y-100704040D01*
X146409689Y-100498834D01*
X146399649Y-100490616D01*
X146196232Y-100324123D01*
X146192914Y-100321407D01*
X145954066Y-100175040D01*
X145697563Y-100062443D01*
X145678210Y-100056930D01*
X145626362Y-100042161D01*
X145428153Y-99985700D01*
X145423911Y-99985096D01*
X145423905Y-99985095D01*
X145197178Y-99952827D01*
X145150819Y-99946229D01*
X145003708Y-99945459D01*
X144874981Y-99944785D01*
X144874975Y-99944785D01*
X144870695Y-99944763D01*
X144866451Y-99945322D01*
X144866447Y-99945322D01*
X144744326Y-99961400D01*
X144592964Y-99981327D01*
X144588824Y-99982460D01*
X144588822Y-99982460D01*
X144438454Y-100023596D01*
X144322765Y-100055245D01*
X144065097Y-100165149D01*
X143919747Y-100252140D01*
X143828411Y-100306803D01*
X143828407Y-100306806D01*
X143824729Y-100309007D01*
X143821386Y-100311685D01*
X143821382Y-100311688D01*
X143812046Y-100319168D01*
X143606109Y-100484155D01*
X143603165Y-100487257D01*
X143603161Y-100487261D01*
X143416231Y-100684243D01*
X143413281Y-100687352D01*
X143249815Y-100914839D01*
X143247811Y-100918624D01*
X143135301Y-101131120D01*
X143118735Y-101162407D01*
X143117263Y-101166430D01*
X143117261Y-101166434D01*
X143023941Y-101421442D01*
X143022466Y-101425473D01*
X142962790Y-101699171D01*
X142940812Y-101978435D01*
X137548959Y-101978435D01*
X137558207Y-101908188D01*
X137559285Y-101900000D01*
X137540228Y-101755246D01*
X137484355Y-101620358D01*
X137395474Y-101504526D01*
X137388924Y-101499500D01*
X137388921Y-101499497D01*
X137286196Y-101420673D01*
X137286194Y-101420672D01*
X137279643Y-101415645D01*
X137144754Y-101359772D01*
X137000000Y-101340715D01*
X136991812Y-101341793D01*
X136863432Y-101358694D01*
X136863430Y-101358695D01*
X136855246Y-101359772D01*
X136807430Y-101379578D01*
X136727986Y-101412485D01*
X136727984Y-101412486D01*
X136720358Y-101415645D01*
X136680521Y-101446213D01*
X136617640Y-101494463D01*
X136551419Y-101520063D01*
X136540936Y-101520500D01*
X120809384Y-101520500D01*
X120741263Y-101500498D01*
X120720289Y-101483595D01*
X119816405Y-100579711D01*
X119782379Y-100517399D01*
X119779500Y-100490616D01*
X119779500Y-100121706D01*
X119799502Y-100053585D01*
X119853158Y-100007092D01*
X119873526Y-99999830D01*
X120052690Y-99952827D01*
X120052691Y-99952827D01*
X120056833Y-99951740D01*
X120315638Y-99844540D01*
X120363396Y-99816633D01*
X120553801Y-99705369D01*
X120553802Y-99705369D01*
X120557499Y-99703208D01*
X120777941Y-99530359D01*
X120972886Y-99329192D01*
X120975419Y-99325744D01*
X120975423Y-99325739D01*
X121136187Y-99106884D01*
X121138725Y-99103429D01*
X121166755Y-99051804D01*
X121270341Y-98861023D01*
X121270342Y-98861021D01*
X121272391Y-98857247D01*
X121371409Y-98595203D01*
X121407880Y-98435964D01*
X127891148Y-98435964D01*
X127904424Y-98638522D01*
X127905845Y-98644118D01*
X127905846Y-98644123D01*
X127945902Y-98801840D01*
X127954392Y-98835269D01*
X127956809Y-98840512D01*
X127994010Y-98921208D01*
X128039377Y-99019616D01*
X128042710Y-99024332D01*
X128101052Y-99106884D01*
X128156533Y-99185389D01*
X128301938Y-99327035D01*
X128470720Y-99439812D01*
X128476023Y-99442090D01*
X128476026Y-99442092D01*
X128651921Y-99517662D01*
X128657228Y-99519942D01*
X128730244Y-99536464D01*
X128849579Y-99563467D01*
X128849584Y-99563468D01*
X128855216Y-99564742D01*
X128860987Y-99564969D01*
X128860989Y-99564969D01*
X128920756Y-99567317D01*
X129058053Y-99572712D01*
X129158499Y-99558148D01*
X129253231Y-99544413D01*
X129253236Y-99544412D01*
X129258945Y-99543584D01*
X129264409Y-99541729D01*
X129264414Y-99541728D01*
X129445693Y-99480192D01*
X129445698Y-99480190D01*
X129451165Y-99478334D01*
X129628276Y-99379147D01*
X129690934Y-99327035D01*
X129779913Y-99253031D01*
X129784345Y-99249345D01*
X129841463Y-99180669D01*
X129910453Y-99097718D01*
X129910455Y-99097715D01*
X129914147Y-99093276D01*
X130013334Y-98916165D01*
X130015190Y-98910698D01*
X130015192Y-98910693D01*
X130076728Y-98729414D01*
X130076729Y-98729409D01*
X130078584Y-98723945D01*
X130079412Y-98718236D01*
X130079413Y-98718231D01*
X130107179Y-98526727D01*
X130107712Y-98523053D01*
X130109232Y-98465000D01*
X130090658Y-98262859D01*
X130089090Y-98257299D01*
X130037125Y-98073046D01*
X130037124Y-98073044D01*
X130035557Y-98067487D01*
X130024978Y-98046033D01*
X129948331Y-97890609D01*
X129945776Y-97885428D01*
X129824320Y-97722779D01*
X129675258Y-97584987D01*
X129670375Y-97581906D01*
X129670371Y-97581903D01*
X129508464Y-97479748D01*
X129503581Y-97476667D01*
X129315039Y-97401446D01*
X129309379Y-97400320D01*
X129309375Y-97400319D01*
X129121613Y-97362971D01*
X129121610Y-97362971D01*
X129115946Y-97361844D01*
X129110171Y-97361768D01*
X129110167Y-97361768D01*
X129008793Y-97360441D01*
X128912971Y-97359187D01*
X128907274Y-97360166D01*
X128907273Y-97360166D01*
X128718607Y-97392585D01*
X128712910Y-97393564D01*
X128522463Y-97463824D01*
X128348010Y-97567612D01*
X128343670Y-97571418D01*
X128343666Y-97571421D01*
X128323723Y-97588911D01*
X128195392Y-97701455D01*
X128191817Y-97705990D01*
X128191816Y-97705991D01*
X128178581Y-97722779D01*
X128069720Y-97860869D01*
X128067031Y-97865980D01*
X128067029Y-97865983D01*
X128054073Y-97890609D01*
X127975203Y-98040515D01*
X127915007Y-98234378D01*
X127891148Y-98435964D01*
X121407880Y-98435964D01*
X121433948Y-98322146D01*
X121456675Y-98067487D01*
X121458629Y-98045595D01*
X121458629Y-98045589D01*
X121458849Y-98043127D01*
X121459301Y-98000000D01*
X121457540Y-97974164D01*
X121440540Y-97724798D01*
X121440539Y-97724792D01*
X121440248Y-97720521D01*
X121383442Y-97446213D01*
X121289933Y-97182153D01*
X121204771Y-97017155D01*
X121163417Y-96937033D01*
X121163417Y-96937032D01*
X121161452Y-96933226D01*
X121148530Y-96914839D01*
X121002844Y-96707550D01*
X121002843Y-96707549D01*
X121000377Y-96704040D01*
X120809689Y-96498834D01*
X120795550Y-96487261D01*
X120596232Y-96324123D01*
X120592914Y-96321407D01*
X120354066Y-96175040D01*
X120097563Y-96062443D01*
X120078210Y-96056930D01*
X120047881Y-96048291D01*
X119828153Y-95985700D01*
X119823911Y-95985096D01*
X119823905Y-95985095D01*
X119618548Y-95955868D01*
X119550819Y-95946229D01*
X119403708Y-95945459D01*
X119274981Y-95944785D01*
X119274975Y-95944785D01*
X119270695Y-95944763D01*
X119266451Y-95945322D01*
X119266447Y-95945322D01*
X119144326Y-95961400D01*
X118992964Y-95981327D01*
X118988824Y-95982460D01*
X118988822Y-95982460D01*
X118726910Y-96054111D01*
X118722765Y-96055245D01*
X118465097Y-96165149D01*
X118319747Y-96252140D01*
X118228411Y-96306803D01*
X118228407Y-96306806D01*
X118224729Y-96309007D01*
X118221386Y-96311685D01*
X118221382Y-96311688D01*
X118212046Y-96319168D01*
X118006109Y-96484155D01*
X117813281Y-96687352D01*
X117649815Y-96914839D01*
X117518735Y-97162407D01*
X117517263Y-97166430D01*
X117517261Y-97166434D01*
X117423941Y-97421442D01*
X117422466Y-97425473D01*
X117362790Y-97699171D01*
X117340812Y-97978435D01*
X117356937Y-98258099D01*
X117357762Y-98262306D01*
X117357763Y-98262311D01*
X117370322Y-98326324D01*
X117410868Y-98532986D01*
X117412255Y-98537037D01*
X117476248Y-98723945D01*
X117501606Y-98798011D01*
X117627473Y-99048269D01*
X117786139Y-99279130D01*
X117974669Y-99486322D01*
X118189573Y-99666010D01*
X118193199Y-99668285D01*
X118193201Y-99668286D01*
X118248661Y-99703076D01*
X118426876Y-99814869D01*
X118430778Y-99816631D01*
X118430782Y-99816633D01*
X118678273Y-99928380D01*
X118678277Y-99928382D01*
X118682185Y-99930146D01*
X118930287Y-100003637D01*
X118989920Y-100042161D01*
X119019260Y-100106812D01*
X119020500Y-100124447D01*
X119020500Y-100646080D01*
X119017951Y-100670028D01*
X119017872Y-100671693D01*
X119015680Y-100681876D01*
X119016904Y-100692217D01*
X119019627Y-100715223D01*
X119019977Y-100721154D01*
X119020072Y-100721146D01*
X119020500Y-100726324D01*
X119020500Y-100731524D01*
X119021354Y-100736653D01*
X119021354Y-100736656D01*
X119023669Y-100750565D01*
X119024506Y-100756443D01*
X119030530Y-100807341D01*
X119034493Y-100815593D01*
X119035996Y-100824626D01*
X119040943Y-100833795D01*
X119040944Y-100833797D01*
X119060334Y-100869732D01*
X119063031Y-100875025D01*
X119081785Y-100914082D01*
X119081788Y-100914086D01*
X119085219Y-100921232D01*
X119088814Y-100925508D01*
X119090737Y-100927431D01*
X119092509Y-100929363D01*
X119092552Y-100929442D01*
X119092428Y-100929555D01*
X119092904Y-100930095D01*
X119095990Y-100935814D01*
X119103635Y-100942881D01*
X119135586Y-100972416D01*
X119139152Y-100975846D01*
X120293522Y-102130216D01*
X120308664Y-102148964D01*
X120309779Y-102150189D01*
X120315429Y-102158940D01*
X120323607Y-102165387D01*
X120323609Y-102165389D01*
X120341800Y-102179729D01*
X120346244Y-102183678D01*
X120346306Y-102183604D01*
X120350263Y-102186957D01*
X120353944Y-102190638D01*
X120369654Y-102201865D01*
X120374380Y-102205413D01*
X120414647Y-102237156D01*
X120423284Y-102240189D01*
X120430734Y-102245513D01*
X120440710Y-102248497D01*
X120440711Y-102248497D01*
X120456046Y-102253083D01*
X120479849Y-102260202D01*
X120485486Y-102262034D01*
X120526367Y-102276390D01*
X120533851Y-102279018D01*
X120539416Y-102279500D01*
X120542124Y-102279500D01*
X120544758Y-102279614D01*
X120544856Y-102279643D01*
X120544849Y-102279807D01*
X120545553Y-102279851D01*
X120551778Y-102281713D01*
X120605635Y-102279597D01*
X120610582Y-102279500D01*
X136540938Y-102279500D01*
X136609059Y-102299502D01*
X136617626Y-102305526D01*
X136720357Y-102384355D01*
X136801594Y-102418005D01*
X136847614Y-102437067D01*
X136847616Y-102437068D01*
X136855246Y-102440228D01*
X136858052Y-102440597D01*
X136916526Y-102476240D01*
X136947548Y-102540101D01*
X136939119Y-102610595D01*
X136923254Y-102637699D01*
X136845675Y-102738802D01*
X136845673Y-102738805D01*
X136840645Y-102745358D01*
X136784772Y-102880246D01*
X136783695Y-102888430D01*
X136783694Y-102888432D01*
X136767873Y-103008611D01*
X136739151Y-103073538D01*
X136732046Y-103081260D01*
X130229711Y-109583595D01*
X130167399Y-109617621D01*
X130140616Y-109620500D01*
X114622115Y-109620500D01*
X114553994Y-109600498D01*
X114507501Y-109546842D01*
X114498733Y-109520051D01*
X114486660Y-109461751D01*
X114483442Y-109446213D01*
X114389933Y-109182153D01*
X114313864Y-109034772D01*
X114263417Y-108937033D01*
X114263417Y-108937032D01*
X114261452Y-108933226D01*
X114248530Y-108914839D01*
X114102844Y-108707550D01*
X114102843Y-108707549D01*
X114100377Y-108704040D01*
X113909689Y-108498834D01*
X113895550Y-108487261D01*
X113696232Y-108324123D01*
X113692914Y-108321407D01*
X113454066Y-108175040D01*
X113197563Y-108062443D01*
X113178210Y-108056930D01*
X113147881Y-108048291D01*
X112928153Y-107985700D01*
X112923911Y-107985096D01*
X112923905Y-107985095D01*
X112718548Y-107955868D01*
X112650819Y-107946229D01*
X112503708Y-107945459D01*
X112374981Y-107944785D01*
X112374975Y-107944785D01*
X112370695Y-107944763D01*
X112366451Y-107945322D01*
X112366447Y-107945322D01*
X112275497Y-107957296D01*
X112092964Y-107981327D01*
X112088824Y-107982460D01*
X112088822Y-107982460D01*
X111998132Y-108007270D01*
X111822765Y-108055245D01*
X111565097Y-108165149D01*
X111493494Y-108208003D01*
X111328411Y-108306803D01*
X111328407Y-108306806D01*
X111324729Y-108309007D01*
X111321386Y-108311685D01*
X111321382Y-108311688D01*
X111230159Y-108384772D01*
X111106109Y-108484155D01*
X111103165Y-108487257D01*
X111103161Y-108487261D01*
X110916231Y-108684243D01*
X110913281Y-108687352D01*
X110749815Y-108914839D01*
X110618735Y-109162407D01*
X110617263Y-109166430D01*
X110617261Y-109166434D01*
X110528364Y-109409355D01*
X110522466Y-109425473D01*
X110462790Y-109699171D01*
X110462454Y-109703441D01*
X110441439Y-109970474D01*
X110440812Y-109978435D01*
X91329000Y-109978435D01*
X91329000Y-104800000D01*
X126065715Y-104800000D01*
X126084772Y-104944754D01*
X126087931Y-104952380D01*
X126129353Y-105052380D01*
X126140645Y-105079642D01*
X126145672Y-105086193D01*
X126217378Y-105179642D01*
X126229526Y-105195474D01*
X126236076Y-105200500D01*
X126236079Y-105200503D01*
X126240371Y-105203796D01*
X126345357Y-105284355D01*
X126480246Y-105340228D01*
X126625000Y-105359285D01*
X126633188Y-105358207D01*
X126761566Y-105341306D01*
X126769754Y-105340228D01*
X126904643Y-105284355D01*
X127020474Y-105195474D01*
X127024012Y-105190863D01*
X127085331Y-105157379D01*
X127112114Y-105154500D01*
X129659216Y-105154500D01*
X129727337Y-105174502D01*
X129759179Y-105203796D01*
X129829526Y-105295474D01*
X129836076Y-105300500D01*
X129836079Y-105300503D01*
X129934337Y-105375899D01*
X129945357Y-105384355D01*
X130080246Y-105440228D01*
X130225000Y-105459285D01*
X130233188Y-105458207D01*
X130361566Y-105441306D01*
X130369754Y-105440228D01*
X130504643Y-105384355D01*
X130515663Y-105375899D01*
X130613921Y-105300503D01*
X130613924Y-105300500D01*
X130620474Y-105295474D01*
X130709355Y-105179642D01*
X130719770Y-105154500D01*
X130762069Y-105052380D01*
X130765228Y-105044754D01*
X130771236Y-104999123D01*
X130783207Y-104908188D01*
X130784285Y-104900000D01*
X130765228Y-104755246D01*
X130726553Y-104661877D01*
X130712515Y-104627986D01*
X130712514Y-104627984D01*
X130709355Y-104620358D01*
X130664914Y-104562442D01*
X130625501Y-104511077D01*
X130625500Y-104511076D01*
X130620474Y-104504526D01*
X130613924Y-104499500D01*
X130613921Y-104499497D01*
X130511196Y-104420673D01*
X130511194Y-104420672D01*
X130504643Y-104415645D01*
X130369754Y-104359772D01*
X130225000Y-104340715D01*
X130216812Y-104341793D01*
X130088432Y-104358694D01*
X130088430Y-104358695D01*
X130080246Y-104359772D01*
X130032430Y-104379578D01*
X129952986Y-104412485D01*
X129952984Y-104412486D01*
X129945358Y-104415645D01*
X129938808Y-104420671D01*
X129931655Y-104424801D01*
X129930728Y-104423196D01*
X129874158Y-104445063D01*
X129863678Y-104445500D01*
X127112114Y-104445500D01*
X127043993Y-104425498D01*
X127024532Y-104409814D01*
X127020474Y-104404526D01*
X126960745Y-104358694D01*
X126911196Y-104320673D01*
X126911194Y-104320672D01*
X126904643Y-104315645D01*
X126769754Y-104259772D01*
X126625000Y-104240715D01*
X126616812Y-104241793D01*
X126488432Y-104258694D01*
X126488430Y-104258695D01*
X126480246Y-104259772D01*
X126432430Y-104279578D01*
X126352986Y-104312485D01*
X126352984Y-104312486D01*
X126345358Y-104315645D01*
X126229526Y-104404526D01*
X126140645Y-104520358D01*
X126084772Y-104655246D01*
X126083695Y-104663430D01*
X126083694Y-104663432D01*
X126073951Y-104737443D01*
X126065715Y-104800000D01*
X91329000Y-104800000D01*
X91329000Y-95049933D01*
X127895500Y-95049933D01*
X127895501Y-96800066D01*
X127910266Y-96874301D01*
X127966516Y-96958484D01*
X128050699Y-97014734D01*
X128124933Y-97029500D01*
X128999858Y-97029500D01*
X129875066Y-97029499D01*
X129910818Y-97022388D01*
X129937126Y-97017156D01*
X129937128Y-97017155D01*
X129949301Y-97014734D01*
X129959621Y-97007839D01*
X129959622Y-97007838D01*
X130023168Y-96965377D01*
X130033484Y-96958484D01*
X130089734Y-96874301D01*
X130104500Y-96800067D01*
X130104499Y-95049934D01*
X130089734Y-94975699D01*
X130033484Y-94891516D01*
X129949301Y-94835266D01*
X129875067Y-94820500D01*
X129000142Y-94820500D01*
X128124934Y-94820501D01*
X128089182Y-94827612D01*
X128062874Y-94832844D01*
X128062872Y-94832845D01*
X128050699Y-94835266D01*
X128040379Y-94842161D01*
X128040378Y-94842162D01*
X127979985Y-94882516D01*
X127966516Y-94891516D01*
X127910266Y-94975699D01*
X127895500Y-95049933D01*
X91329000Y-95049933D01*
X91329000Y-93525964D01*
X113191148Y-93525964D01*
X113204424Y-93728522D01*
X113205845Y-93734118D01*
X113205846Y-93734123D01*
X113226119Y-93813945D01*
X113254392Y-93925269D01*
X113256809Y-93930512D01*
X113294010Y-94011208D01*
X113339377Y-94109616D01*
X113456533Y-94275389D01*
X113601938Y-94417035D01*
X113770720Y-94529812D01*
X113776023Y-94532090D01*
X113776026Y-94532092D01*
X113864707Y-94570192D01*
X113957228Y-94609942D01*
X114030244Y-94626464D01*
X114149579Y-94653467D01*
X114149584Y-94653468D01*
X114155216Y-94654742D01*
X114160987Y-94654969D01*
X114160989Y-94654969D01*
X114220756Y-94657317D01*
X114358053Y-94662712D01*
X114458499Y-94648148D01*
X114553231Y-94634413D01*
X114553236Y-94634412D01*
X114558945Y-94633584D01*
X114564409Y-94631729D01*
X114564414Y-94631728D01*
X114745693Y-94570192D01*
X114745698Y-94570190D01*
X114751165Y-94568334D01*
X114928276Y-94469147D01*
X114990934Y-94417035D01*
X115079913Y-94343031D01*
X115084345Y-94339345D01*
X115214147Y-94183276D01*
X115313334Y-94006165D01*
X115315190Y-94000698D01*
X115315192Y-94000693D01*
X115376728Y-93819414D01*
X115376729Y-93819409D01*
X115378584Y-93813945D01*
X115379412Y-93808236D01*
X115379413Y-93808231D01*
X115407179Y-93616727D01*
X115407712Y-93613053D01*
X115409232Y-93555000D01*
X115390658Y-93352859D01*
X115389090Y-93347299D01*
X115337125Y-93163046D01*
X115337124Y-93163044D01*
X115335557Y-93157487D01*
X115324978Y-93136033D01*
X115248331Y-92980609D01*
X115245776Y-92975428D01*
X115124320Y-92812779D01*
X114975258Y-92674987D01*
X114970375Y-92671906D01*
X114970371Y-92671903D01*
X114808464Y-92569748D01*
X114803581Y-92566667D01*
X114615039Y-92491446D01*
X114609379Y-92490320D01*
X114609375Y-92490319D01*
X114421613Y-92452971D01*
X114421610Y-92452971D01*
X114415946Y-92451844D01*
X114410171Y-92451768D01*
X114410167Y-92451768D01*
X114308793Y-92450441D01*
X114212971Y-92449187D01*
X114207274Y-92450166D01*
X114207273Y-92450166D01*
X114018607Y-92482585D01*
X114012910Y-92483564D01*
X113822463Y-92553824D01*
X113648010Y-92657612D01*
X113643670Y-92661418D01*
X113643666Y-92661421D01*
X113623723Y-92678911D01*
X113495392Y-92791455D01*
X113369720Y-92950869D01*
X113367031Y-92955980D01*
X113367029Y-92955983D01*
X113354073Y-92980609D01*
X113275203Y-93130515D01*
X113215007Y-93324378D01*
X113191148Y-93525964D01*
X91329000Y-93525964D01*
X91329000Y-90985964D01*
X113191148Y-90985964D01*
X113204424Y-91188522D01*
X113205845Y-91194118D01*
X113205846Y-91194123D01*
X113226119Y-91273945D01*
X113254392Y-91385269D01*
X113256809Y-91390512D01*
X113294010Y-91471208D01*
X113339377Y-91569616D01*
X113456533Y-91735389D01*
X113601938Y-91877035D01*
X113770720Y-91989812D01*
X113776023Y-91992090D01*
X113776026Y-91992092D01*
X113864707Y-92030192D01*
X113957228Y-92069942D01*
X114030244Y-92086464D01*
X114149579Y-92113467D01*
X114149584Y-92113468D01*
X114155216Y-92114742D01*
X114160987Y-92114969D01*
X114160989Y-92114969D01*
X114220756Y-92117317D01*
X114358053Y-92122712D01*
X114458499Y-92108148D01*
X114553231Y-92094413D01*
X114553236Y-92094412D01*
X114558945Y-92093584D01*
X114564409Y-92091729D01*
X114564414Y-92091728D01*
X114745693Y-92030192D01*
X114745698Y-92030190D01*
X114751165Y-92028334D01*
X114928276Y-91929147D01*
X114990934Y-91877035D01*
X115079913Y-91803031D01*
X115084345Y-91799345D01*
X115214147Y-91643276D01*
X115313334Y-91466165D01*
X115315190Y-91460698D01*
X115315192Y-91460693D01*
X115376728Y-91279414D01*
X115376729Y-91279409D01*
X115378584Y-91273945D01*
X115379412Y-91268236D01*
X115379413Y-91268231D01*
X115407179Y-91076727D01*
X115407712Y-91073053D01*
X115409232Y-91015000D01*
X115390658Y-90812859D01*
X115389090Y-90807299D01*
X115337125Y-90623046D01*
X115337124Y-90623044D01*
X115335557Y-90617487D01*
X115324978Y-90596033D01*
X115248331Y-90440609D01*
X115245776Y-90435428D01*
X115124320Y-90272779D01*
X114975258Y-90134987D01*
X114970375Y-90131906D01*
X114970371Y-90131903D01*
X114808464Y-90029748D01*
X114803581Y-90026667D01*
X114615039Y-89951446D01*
X114609379Y-89950320D01*
X114609375Y-89950319D01*
X114421613Y-89912971D01*
X114421610Y-89912971D01*
X114415946Y-89911844D01*
X114410171Y-89911768D01*
X114410167Y-89911768D01*
X114308793Y-89910441D01*
X114212971Y-89909187D01*
X114207274Y-89910166D01*
X114207273Y-89910166D01*
X114018607Y-89942585D01*
X114012910Y-89943564D01*
X113822463Y-90013824D01*
X113648010Y-90117612D01*
X113643670Y-90121418D01*
X113643666Y-90121421D01*
X113623723Y-90138911D01*
X113495392Y-90251455D01*
X113369720Y-90410869D01*
X113367031Y-90415980D01*
X113367029Y-90415983D01*
X113354073Y-90440609D01*
X113275203Y-90590515D01*
X113215007Y-90784378D01*
X113191148Y-90985964D01*
X91329000Y-90985964D01*
X91329000Y-71978435D01*
X110440812Y-71978435D01*
X110456937Y-72258099D01*
X110510868Y-72532986D01*
X110512255Y-72537037D01*
X110594372Y-72776881D01*
X110601606Y-72798011D01*
X110623049Y-72840645D01*
X110717674Y-73028785D01*
X110727473Y-73048269D01*
X110886139Y-73279130D01*
X110920427Y-73316812D01*
X111052145Y-73461568D01*
X111074669Y-73486322D01*
X111289573Y-73666010D01*
X111293199Y-73668285D01*
X111293201Y-73668286D01*
X111348661Y-73703076D01*
X111526876Y-73814869D01*
X111530778Y-73816631D01*
X111530782Y-73816633D01*
X111778273Y-73928380D01*
X111778277Y-73928382D01*
X111782185Y-73930146D01*
X112030287Y-74003637D01*
X112089920Y-74042161D01*
X112119260Y-74106812D01*
X112120500Y-74124447D01*
X112120500Y-79221080D01*
X112117951Y-79245028D01*
X112117872Y-79246693D01*
X112115680Y-79256876D01*
X112116904Y-79267217D01*
X112119627Y-79290223D01*
X112119977Y-79296154D01*
X112120072Y-79296146D01*
X112120500Y-79301324D01*
X112120500Y-79306524D01*
X112121354Y-79311653D01*
X112121354Y-79311656D01*
X112123669Y-79325565D01*
X112124506Y-79331443D01*
X112130530Y-79382341D01*
X112134493Y-79390593D01*
X112135996Y-79399626D01*
X112140943Y-79408795D01*
X112140944Y-79408797D01*
X112160334Y-79444732D01*
X112163031Y-79450025D01*
X112181785Y-79489082D01*
X112181788Y-79489086D01*
X112185219Y-79496232D01*
X112188814Y-79500508D01*
X112190737Y-79502431D01*
X112192509Y-79504363D01*
X112192552Y-79504442D01*
X112192428Y-79504555D01*
X112192904Y-79505095D01*
X112195990Y-79510814D01*
X112203635Y-79517881D01*
X112235586Y-79547416D01*
X112239152Y-79550846D01*
X113883595Y-81195289D01*
X113917621Y-81257601D01*
X113920500Y-81284384D01*
X113920500Y-87244501D01*
X113900498Y-87312622D01*
X113846842Y-87359115D01*
X113794500Y-87370501D01*
X113424934Y-87370501D01*
X113389182Y-87377612D01*
X113362874Y-87382844D01*
X113362872Y-87382845D01*
X113350699Y-87385266D01*
X113340379Y-87392161D01*
X113340378Y-87392162D01*
X113279985Y-87432516D01*
X113266516Y-87441516D01*
X113210266Y-87525699D01*
X113195500Y-87599933D01*
X113195501Y-89350066D01*
X113210266Y-89424301D01*
X113266516Y-89508484D01*
X113350699Y-89564734D01*
X113424933Y-89579500D01*
X114299858Y-89579500D01*
X115175066Y-89579499D01*
X115210818Y-89572388D01*
X115237126Y-89567156D01*
X115237128Y-89567155D01*
X115249301Y-89564734D01*
X115259621Y-89557839D01*
X115259622Y-89557838D01*
X115323168Y-89515377D01*
X115333484Y-89508484D01*
X115389734Y-89424301D01*
X115404500Y-89350067D01*
X115404499Y-87599934D01*
X115389734Y-87525699D01*
X115333484Y-87441516D01*
X115249301Y-87385266D01*
X115175067Y-87370500D01*
X114805500Y-87370500D01*
X114737379Y-87350498D01*
X114690886Y-87296842D01*
X114679500Y-87244500D01*
X114679500Y-84470964D01*
X120271148Y-84470964D01*
X120284424Y-84673522D01*
X120285845Y-84679118D01*
X120285846Y-84679123D01*
X120306119Y-84758945D01*
X120334392Y-84870269D01*
X120336809Y-84875512D01*
X120374010Y-84956208D01*
X120419377Y-85054616D01*
X120536533Y-85220389D01*
X120681938Y-85362035D01*
X120850720Y-85474812D01*
X120856023Y-85477090D01*
X120856026Y-85477092D01*
X120987283Y-85533484D01*
X121037228Y-85554942D01*
X121110244Y-85571464D01*
X121229579Y-85598467D01*
X121229584Y-85598468D01*
X121235216Y-85599742D01*
X121240987Y-85599969D01*
X121240989Y-85599969D01*
X121300756Y-85602317D01*
X121438053Y-85607712D01*
X121545348Y-85592155D01*
X121633231Y-85579413D01*
X121633236Y-85579412D01*
X121638945Y-85578584D01*
X121644409Y-85576729D01*
X121644414Y-85576728D01*
X121825693Y-85515192D01*
X121825698Y-85515190D01*
X121831165Y-85513334D01*
X122008276Y-85414147D01*
X122047969Y-85381135D01*
X122159913Y-85288031D01*
X122164345Y-85284345D01*
X122294147Y-85128276D01*
X122393334Y-84951165D01*
X122395190Y-84945698D01*
X122395192Y-84945693D01*
X122456728Y-84764414D01*
X122456729Y-84764409D01*
X122458584Y-84758945D01*
X122459412Y-84753236D01*
X122459413Y-84753231D01*
X122487179Y-84561727D01*
X122487712Y-84558053D01*
X122489232Y-84500000D01*
X122486564Y-84470964D01*
X122811148Y-84470964D01*
X122824424Y-84673522D01*
X122825845Y-84679118D01*
X122825846Y-84679123D01*
X122846119Y-84758945D01*
X122874392Y-84870269D01*
X122876809Y-84875512D01*
X122914010Y-84956208D01*
X122959377Y-85054616D01*
X123076533Y-85220389D01*
X123221938Y-85362035D01*
X123390720Y-85474812D01*
X123396023Y-85477090D01*
X123396026Y-85477092D01*
X123527283Y-85533484D01*
X123577228Y-85554942D01*
X123650244Y-85571464D01*
X123769579Y-85598467D01*
X123769584Y-85598468D01*
X123775216Y-85599742D01*
X123780987Y-85599969D01*
X123780989Y-85599969D01*
X123840756Y-85602317D01*
X123978053Y-85607712D01*
X124085348Y-85592155D01*
X124173231Y-85579413D01*
X124173236Y-85579412D01*
X124178945Y-85578584D01*
X124184409Y-85576729D01*
X124184414Y-85576728D01*
X124365693Y-85515192D01*
X124365698Y-85515190D01*
X124371165Y-85513334D01*
X124548276Y-85414147D01*
X124587969Y-85381135D01*
X124699913Y-85288031D01*
X124704345Y-85284345D01*
X124834147Y-85128276D01*
X124933334Y-84951165D01*
X124935190Y-84945698D01*
X124935192Y-84945693D01*
X124996728Y-84764414D01*
X124996729Y-84764409D01*
X124998584Y-84758945D01*
X124999412Y-84753236D01*
X124999413Y-84753231D01*
X125027179Y-84561727D01*
X125027712Y-84558053D01*
X125029232Y-84500000D01*
X125026564Y-84470964D01*
X125351148Y-84470964D01*
X125364424Y-84673522D01*
X125365845Y-84679118D01*
X125365846Y-84679123D01*
X125386119Y-84758945D01*
X125414392Y-84870269D01*
X125416809Y-84875512D01*
X125454010Y-84956208D01*
X125499377Y-85054616D01*
X125616533Y-85220389D01*
X125761938Y-85362035D01*
X125930720Y-85474812D01*
X125936023Y-85477090D01*
X125936026Y-85477092D01*
X126067283Y-85533484D01*
X126117228Y-85554942D01*
X126190244Y-85571464D01*
X126309579Y-85598467D01*
X126309584Y-85598468D01*
X126315216Y-85599742D01*
X126320987Y-85599969D01*
X126320989Y-85599969D01*
X126380756Y-85602317D01*
X126518053Y-85607712D01*
X126625348Y-85592155D01*
X126713231Y-85579413D01*
X126713236Y-85579412D01*
X126718945Y-85578584D01*
X126724409Y-85576729D01*
X126724414Y-85576728D01*
X126905693Y-85515192D01*
X126905698Y-85515190D01*
X126911165Y-85513334D01*
X127088276Y-85414147D01*
X127127969Y-85381135D01*
X127239913Y-85288031D01*
X127244345Y-85284345D01*
X127374147Y-85128276D01*
X127473334Y-84951165D01*
X127475190Y-84945698D01*
X127475192Y-84945693D01*
X127536728Y-84764414D01*
X127536729Y-84764409D01*
X127538584Y-84758945D01*
X127539412Y-84753236D01*
X127539413Y-84753231D01*
X127567179Y-84561727D01*
X127567712Y-84558053D01*
X127569232Y-84500000D01*
X127550658Y-84297859D01*
X127549090Y-84292299D01*
X127497125Y-84108046D01*
X127497124Y-84108044D01*
X127495557Y-84102487D01*
X127484978Y-84081033D01*
X127408331Y-83925609D01*
X127405776Y-83920428D01*
X127284320Y-83757779D01*
X127140609Y-83624933D01*
X127895500Y-83624933D01*
X127895501Y-85375066D01*
X127910266Y-85449301D01*
X127917161Y-85459620D01*
X127917162Y-85459622D01*
X127957516Y-85520015D01*
X127966516Y-85533484D01*
X128050699Y-85589734D01*
X128124933Y-85604500D01*
X128999858Y-85604500D01*
X129875066Y-85604499D01*
X129910818Y-85597388D01*
X129937126Y-85592156D01*
X129937128Y-85592155D01*
X129949301Y-85589734D01*
X129959621Y-85582839D01*
X129959622Y-85582838D01*
X130023168Y-85540377D01*
X130033484Y-85533484D01*
X130089734Y-85449301D01*
X130104500Y-85375067D01*
X130104499Y-83624934D01*
X130089734Y-83550699D01*
X130063654Y-83511667D01*
X130040377Y-83476832D01*
X130033484Y-83466516D01*
X129949301Y-83410266D01*
X129875067Y-83395500D01*
X129000142Y-83395500D01*
X128124934Y-83395501D01*
X128089182Y-83402612D01*
X128062874Y-83407844D01*
X128062872Y-83407845D01*
X128050699Y-83410266D01*
X128040379Y-83417161D01*
X128040378Y-83417162D01*
X127979985Y-83457516D01*
X127966516Y-83466516D01*
X127910266Y-83550699D01*
X127895500Y-83624933D01*
X127140609Y-83624933D01*
X127135258Y-83619987D01*
X127130375Y-83616906D01*
X127130371Y-83616903D01*
X126968464Y-83514748D01*
X126963581Y-83511667D01*
X126775039Y-83436446D01*
X126769379Y-83435320D01*
X126769375Y-83435319D01*
X126581613Y-83397971D01*
X126581610Y-83397971D01*
X126575946Y-83396844D01*
X126570171Y-83396768D01*
X126570167Y-83396768D01*
X126468793Y-83395441D01*
X126372971Y-83394187D01*
X126367274Y-83395166D01*
X126367273Y-83395166D01*
X126279397Y-83410266D01*
X126172910Y-83428564D01*
X125982463Y-83498824D01*
X125808010Y-83602612D01*
X125803670Y-83606418D01*
X125803666Y-83606421D01*
X125659733Y-83732648D01*
X125655392Y-83736455D01*
X125529720Y-83895869D01*
X125527031Y-83900980D01*
X125527029Y-83900983D01*
X125514073Y-83925609D01*
X125435203Y-84075515D01*
X125375007Y-84269378D01*
X125351148Y-84470964D01*
X125026564Y-84470964D01*
X125010658Y-84297859D01*
X125009090Y-84292299D01*
X124957125Y-84108046D01*
X124957124Y-84108044D01*
X124955557Y-84102487D01*
X124944978Y-84081033D01*
X124868331Y-83925609D01*
X124865776Y-83920428D01*
X124744320Y-83757779D01*
X124595258Y-83619987D01*
X124590375Y-83616906D01*
X124590371Y-83616903D01*
X124428464Y-83514748D01*
X124423581Y-83511667D01*
X124235039Y-83436446D01*
X124229379Y-83435320D01*
X124229375Y-83435319D01*
X124041613Y-83397971D01*
X124041610Y-83397971D01*
X124035946Y-83396844D01*
X124030171Y-83396768D01*
X124030167Y-83396768D01*
X123928793Y-83395441D01*
X123832971Y-83394187D01*
X123827274Y-83395166D01*
X123827273Y-83395166D01*
X123739397Y-83410266D01*
X123632910Y-83428564D01*
X123442463Y-83498824D01*
X123268010Y-83602612D01*
X123263670Y-83606418D01*
X123263666Y-83606421D01*
X123119733Y-83732648D01*
X123115392Y-83736455D01*
X122989720Y-83895869D01*
X122987031Y-83900980D01*
X122987029Y-83900983D01*
X122974073Y-83925609D01*
X122895203Y-84075515D01*
X122835007Y-84269378D01*
X122811148Y-84470964D01*
X122486564Y-84470964D01*
X122470658Y-84297859D01*
X122469090Y-84292299D01*
X122417125Y-84108046D01*
X122417124Y-84108044D01*
X122415557Y-84102487D01*
X122404978Y-84081033D01*
X122328331Y-83925609D01*
X122325776Y-83920428D01*
X122204320Y-83757779D01*
X122055258Y-83619987D01*
X122050375Y-83616906D01*
X122050371Y-83616903D01*
X121888464Y-83514748D01*
X121883581Y-83511667D01*
X121695039Y-83436446D01*
X121689379Y-83435320D01*
X121689375Y-83435319D01*
X121501613Y-83397971D01*
X121501610Y-83397971D01*
X121495946Y-83396844D01*
X121490171Y-83396768D01*
X121490167Y-83396768D01*
X121388793Y-83395441D01*
X121292971Y-83394187D01*
X121287274Y-83395166D01*
X121287273Y-83395166D01*
X121199397Y-83410266D01*
X121092910Y-83428564D01*
X120902463Y-83498824D01*
X120728010Y-83602612D01*
X120723670Y-83606418D01*
X120723666Y-83606421D01*
X120579733Y-83732648D01*
X120575392Y-83736455D01*
X120449720Y-83895869D01*
X120447031Y-83900980D01*
X120447029Y-83900983D01*
X120434073Y-83925609D01*
X120355203Y-84075515D01*
X120295007Y-84269378D01*
X120271148Y-84470964D01*
X114679500Y-84470964D01*
X114679500Y-81128920D01*
X114682049Y-81104973D01*
X114682128Y-81103307D01*
X114684320Y-81093124D01*
X114683096Y-81082782D01*
X114683096Y-81082779D01*
X114680374Y-81059787D01*
X114680023Y-81053846D01*
X114679928Y-81053854D01*
X114679500Y-81048674D01*
X114679500Y-81043476D01*
X114676329Y-81024424D01*
X114675492Y-81018547D01*
X114670693Y-80977997D01*
X114670692Y-80977995D01*
X114669469Y-80967659D01*
X114665508Y-80959410D01*
X114664004Y-80950374D01*
X114659056Y-80941203D01*
X114639652Y-80905240D01*
X114636957Y-80899951D01*
X114618212Y-80860915D01*
X114614780Y-80853768D01*
X114611186Y-80849492D01*
X114609246Y-80847552D01*
X114607493Y-80845641D01*
X114607444Y-80845551D01*
X114607567Y-80845439D01*
X114607095Y-80844904D01*
X114604010Y-80839186D01*
X114564413Y-80802583D01*
X114560848Y-80799154D01*
X112916405Y-79154711D01*
X112882379Y-79092399D01*
X112879500Y-79065616D01*
X112879500Y-74121706D01*
X112899502Y-74053585D01*
X112953158Y-74007092D01*
X112973526Y-73999830D01*
X113152690Y-73952827D01*
X113152691Y-73952827D01*
X113156833Y-73951740D01*
X113415638Y-73844540D01*
X113447813Y-73825739D01*
X113653801Y-73705369D01*
X113653802Y-73705369D01*
X113657499Y-73703208D01*
X113877941Y-73530359D01*
X114072886Y-73329192D01*
X114075419Y-73325744D01*
X114075423Y-73325739D01*
X114236187Y-73106884D01*
X114238725Y-73103429D01*
X114246264Y-73089544D01*
X114370341Y-72861023D01*
X114370342Y-72861021D01*
X114372391Y-72857247D01*
X114471409Y-72595203D01*
X114493782Y-72497520D01*
X114498397Y-72477370D01*
X114533103Y-72415434D01*
X114595784Y-72382094D01*
X114621217Y-72379500D01*
X136690616Y-72379500D01*
X136758737Y-72399502D01*
X136779711Y-72416405D01*
X136994870Y-72631564D01*
X137028896Y-72693876D01*
X137023831Y-72764691D01*
X136981284Y-72821527D01*
X136953991Y-72837069D01*
X136945358Y-72840645D01*
X136829526Y-72929526D01*
X136740645Y-73045358D01*
X136737486Y-73052984D01*
X136737485Y-73052986D01*
X136728212Y-73075374D01*
X136684772Y-73180246D01*
X136665715Y-73325000D01*
X136684772Y-73469754D01*
X136704264Y-73516812D01*
X136735473Y-73592155D01*
X136740645Y-73604642D01*
X136745672Y-73611193D01*
X136819463Y-73707360D01*
X136845063Y-73773581D01*
X136845500Y-73784064D01*
X136845500Y-76946080D01*
X136842951Y-76970028D01*
X136842872Y-76971693D01*
X136840680Y-76981876D01*
X136841904Y-76992217D01*
X136844627Y-77015223D01*
X136844977Y-77021154D01*
X136845072Y-77021146D01*
X136845500Y-77026324D01*
X136845500Y-77031524D01*
X136846354Y-77036653D01*
X136846354Y-77036656D01*
X136848669Y-77050565D01*
X136849506Y-77056443D01*
X136855530Y-77107341D01*
X136859493Y-77115593D01*
X136860996Y-77124626D01*
X136865943Y-77133795D01*
X136865944Y-77133797D01*
X136885334Y-77169732D01*
X136888031Y-77175025D01*
X136906785Y-77214082D01*
X136906788Y-77214086D01*
X136910219Y-77221232D01*
X136913814Y-77225508D01*
X136915737Y-77227431D01*
X136917509Y-77229363D01*
X136917552Y-77229442D01*
X136917428Y-77229555D01*
X136917904Y-77230095D01*
X136920990Y-77235814D01*
X136928635Y-77242881D01*
X136960586Y-77272416D01*
X136964152Y-77275846D01*
X137858595Y-78170289D01*
X137892621Y-78232601D01*
X137895500Y-78259384D01*
X137895500Y-80365938D01*
X137875498Y-80434059D01*
X137869461Y-80442643D01*
X137847544Y-80471205D01*
X137790206Y-80513072D01*
X137747583Y-80520500D01*
X125155499Y-80520500D01*
X125087378Y-80500498D01*
X125040885Y-80446842D01*
X125029499Y-80394500D01*
X125029499Y-80024934D01*
X125014734Y-79950699D01*
X124988654Y-79911667D01*
X124965377Y-79876832D01*
X124958484Y-79866516D01*
X124874301Y-79810266D01*
X124800067Y-79795500D01*
X123925142Y-79795500D01*
X123049934Y-79795501D01*
X123014182Y-79802612D01*
X122987874Y-79807844D01*
X122987872Y-79807845D01*
X122975699Y-79810266D01*
X122965379Y-79817161D01*
X122965378Y-79817162D01*
X122904985Y-79857516D01*
X122891516Y-79866516D01*
X122835266Y-79950699D01*
X122820500Y-80024933D01*
X122820500Y-80394500D01*
X122800498Y-80462621D01*
X122746842Y-80509114D01*
X122694500Y-80520500D01*
X122507792Y-80520500D01*
X122439671Y-80500498D01*
X122394786Y-80450228D01*
X122333331Y-80325609D01*
X122330776Y-80320428D01*
X122209320Y-80157779D01*
X122060258Y-80019987D01*
X122055375Y-80016906D01*
X122055371Y-80016903D01*
X121893464Y-79914748D01*
X121888581Y-79911667D01*
X121700039Y-79836446D01*
X121694379Y-79835320D01*
X121694375Y-79835319D01*
X121506613Y-79797971D01*
X121506610Y-79797971D01*
X121500946Y-79796844D01*
X121495171Y-79796768D01*
X121495167Y-79796768D01*
X121393793Y-79795441D01*
X121297971Y-79794187D01*
X121292274Y-79795166D01*
X121292273Y-79795166D01*
X121204397Y-79810266D01*
X121097910Y-79828564D01*
X120907463Y-79898824D01*
X120733010Y-80002612D01*
X120728670Y-80006418D01*
X120728666Y-80006421D01*
X120584733Y-80132648D01*
X120580392Y-80136455D01*
X120454720Y-80295869D01*
X120452031Y-80300980D01*
X120452029Y-80300983D01*
X120439073Y-80325609D01*
X120360203Y-80475515D01*
X120300007Y-80669378D01*
X120276148Y-80870964D01*
X120289424Y-81073522D01*
X120290845Y-81079118D01*
X120290846Y-81079123D01*
X120328023Y-81225503D01*
X120339392Y-81270269D01*
X120341809Y-81275512D01*
X120376803Y-81351419D01*
X120424377Y-81454616D01*
X120541533Y-81620389D01*
X120686938Y-81762035D01*
X120855720Y-81874812D01*
X120861023Y-81877090D01*
X120861026Y-81877092D01*
X120992283Y-81933484D01*
X121042228Y-81954942D01*
X121115244Y-81971464D01*
X121234579Y-81998467D01*
X121234584Y-81998468D01*
X121240216Y-81999742D01*
X121245987Y-81999969D01*
X121245989Y-81999969D01*
X121305756Y-82002317D01*
X121443053Y-82007712D01*
X121550348Y-81992155D01*
X121638231Y-81979413D01*
X121638236Y-81979412D01*
X121643945Y-81978584D01*
X121649409Y-81976729D01*
X121649414Y-81976728D01*
X121830693Y-81915192D01*
X121830698Y-81915190D01*
X121836165Y-81913334D01*
X122013276Y-81814147D01*
X122052969Y-81781135D01*
X122164913Y-81688031D01*
X122169345Y-81684345D01*
X122299147Y-81528276D01*
X122398334Y-81351165D01*
X122398787Y-81351419D01*
X122442368Y-81300151D01*
X122511488Y-81279500D01*
X122694501Y-81279500D01*
X122762622Y-81299502D01*
X122809115Y-81353158D01*
X122820501Y-81405500D01*
X122820501Y-81775066D01*
X122835266Y-81849301D01*
X122842161Y-81859620D01*
X122842162Y-81859622D01*
X122882516Y-81920015D01*
X122891516Y-81933484D01*
X122975699Y-81989734D01*
X123049933Y-82004500D01*
X123924858Y-82004500D01*
X124800066Y-82004499D01*
X124835818Y-81997388D01*
X124862126Y-81992156D01*
X124862128Y-81992155D01*
X124874301Y-81989734D01*
X124884621Y-81982839D01*
X124884622Y-81982838D01*
X124948168Y-81940377D01*
X124958484Y-81933484D01*
X125014734Y-81849301D01*
X125029500Y-81775067D01*
X125029500Y-81405500D01*
X125049502Y-81337379D01*
X125103158Y-81290886D01*
X125155500Y-81279500D01*
X137913678Y-81279500D01*
X137981799Y-81299502D01*
X137988000Y-81303863D01*
X137988807Y-81304329D01*
X137995357Y-81309355D01*
X138002983Y-81312514D01*
X138002985Y-81312515D01*
X138101857Y-81353469D01*
X138130246Y-81365228D01*
X138275000Y-81384285D01*
X138283188Y-81383207D01*
X138411566Y-81366306D01*
X138419754Y-81365228D01*
X138554643Y-81309355D01*
X138561196Y-81304327D01*
X138663921Y-81225503D01*
X138663924Y-81225500D01*
X138670474Y-81220474D01*
X138759355Y-81104642D01*
X138769926Y-81079123D01*
X138795422Y-81017570D01*
X138815228Y-80969754D01*
X138816961Y-80956596D01*
X138833207Y-80833188D01*
X138834285Y-80825000D01*
X138815228Y-80680246D01*
X138759355Y-80545358D01*
X138705763Y-80475515D01*
X138680537Y-80442640D01*
X138654937Y-80376419D01*
X138654500Y-80365936D01*
X138654500Y-78103920D01*
X138657049Y-78079973D01*
X138657128Y-78078307D01*
X138659320Y-78068124D01*
X138658096Y-78057782D01*
X138658096Y-78057779D01*
X138655374Y-78034787D01*
X138655023Y-78028846D01*
X138654928Y-78028854D01*
X138654500Y-78023674D01*
X138654500Y-78018476D01*
X138653260Y-78011023D01*
X138651329Y-77999427D01*
X138650492Y-77993547D01*
X138645693Y-77952997D01*
X138645692Y-77952995D01*
X138644469Y-77942659D01*
X138640508Y-77934410D01*
X138639004Y-77925374D01*
X138634056Y-77916203D01*
X138614652Y-77880240D01*
X138611957Y-77874951D01*
X138593212Y-77835915D01*
X138589780Y-77828768D01*
X138586186Y-77824492D01*
X138584246Y-77822552D01*
X138582493Y-77820641D01*
X138582444Y-77820551D01*
X138582567Y-77820439D01*
X138582095Y-77819904D01*
X138579010Y-77814186D01*
X138539413Y-77777583D01*
X138535848Y-77774154D01*
X137890129Y-77128435D01*
X142940812Y-77128435D01*
X142956937Y-77408099D01*
X142957762Y-77412306D01*
X142957763Y-77412311D01*
X142970322Y-77476324D01*
X143010868Y-77682986D01*
X143012255Y-77687037D01*
X143099774Y-77942659D01*
X143101606Y-77948011D01*
X143103532Y-77951840D01*
X143208036Y-78159622D01*
X143227473Y-78198269D01*
X143386139Y-78429130D01*
X143574669Y-78636322D01*
X143789573Y-78816010D01*
X143793199Y-78818285D01*
X143793201Y-78818286D01*
X143848661Y-78853076D01*
X144026876Y-78964869D01*
X144030778Y-78966631D01*
X144030782Y-78966633D01*
X144278273Y-79078380D01*
X144278277Y-79078382D01*
X144282185Y-79080146D01*
X144286305Y-79081366D01*
X144286304Y-79081366D01*
X144546664Y-79158488D01*
X144546668Y-79158489D01*
X144550777Y-79159706D01*
X144555014Y-79160354D01*
X144555017Y-79160355D01*
X144639874Y-79173340D01*
X144827682Y-79202079D01*
X144970296Y-79204319D01*
X145103484Y-79206412D01*
X145103490Y-79206412D01*
X145107775Y-79206479D01*
X145385875Y-79172825D01*
X145656833Y-79101740D01*
X145915638Y-78994540D01*
X145963396Y-78966633D01*
X146153801Y-78855369D01*
X146153802Y-78855369D01*
X146157499Y-78853208D01*
X146377941Y-78680359D01*
X146572886Y-78479192D01*
X146575419Y-78475744D01*
X146575423Y-78475739D01*
X146736187Y-78256884D01*
X146738725Y-78253429D01*
X146750034Y-78232601D01*
X146870341Y-78011023D01*
X146870342Y-78011021D01*
X146872391Y-78007247D01*
X146971409Y-77745203D01*
X147033948Y-77472146D01*
X147051467Y-77275846D01*
X147058629Y-77195595D01*
X147058629Y-77195589D01*
X147058849Y-77193127D01*
X147059301Y-77150000D01*
X147057285Y-77120431D01*
X147040540Y-76874798D01*
X147040539Y-76874792D01*
X147040248Y-76870521D01*
X146983442Y-76596213D01*
X146889933Y-76332153D01*
X146886206Y-76324933D01*
X153395500Y-76324933D01*
X153395501Y-78075066D01*
X153410266Y-78149301D01*
X153466516Y-78233484D01*
X153550699Y-78289734D01*
X153624933Y-78304500D01*
X154499858Y-78304500D01*
X155375066Y-78304499D01*
X155410818Y-78297388D01*
X155437126Y-78292156D01*
X155437128Y-78292155D01*
X155449301Y-78289734D01*
X155459621Y-78282839D01*
X155459622Y-78282838D01*
X155523168Y-78240377D01*
X155533484Y-78233484D01*
X155589734Y-78149301D01*
X155604500Y-78075067D01*
X155604499Y-76324934D01*
X155589734Y-76250699D01*
X155533484Y-76166516D01*
X155449301Y-76110266D01*
X155375067Y-76095500D01*
X154500142Y-76095500D01*
X153624934Y-76095501D01*
X153589182Y-76102612D01*
X153562874Y-76107844D01*
X153562872Y-76107845D01*
X153550699Y-76110266D01*
X153540379Y-76117161D01*
X153540378Y-76117162D01*
X153479985Y-76157516D01*
X153466516Y-76166516D01*
X153410266Y-76250699D01*
X153395500Y-76324933D01*
X146886206Y-76324933D01*
X146804441Y-76166516D01*
X146763417Y-76087033D01*
X146763417Y-76087032D01*
X146761452Y-76083226D01*
X146748530Y-76064839D01*
X146602844Y-75857550D01*
X146602843Y-75857549D01*
X146600377Y-75854040D01*
X146409689Y-75648834D01*
X146395550Y-75637261D01*
X146196232Y-75474123D01*
X146192914Y-75471407D01*
X145954066Y-75325040D01*
X145697563Y-75212443D01*
X145678210Y-75206930D01*
X145647881Y-75198291D01*
X145428153Y-75135700D01*
X145423911Y-75135096D01*
X145423905Y-75135095D01*
X145218548Y-75105868D01*
X145150819Y-75096229D01*
X145003708Y-75095459D01*
X144874981Y-75094785D01*
X144874975Y-75094785D01*
X144870695Y-75094763D01*
X144866451Y-75095322D01*
X144866447Y-75095322D01*
X144744326Y-75111400D01*
X144592964Y-75131327D01*
X144588824Y-75132460D01*
X144588822Y-75132460D01*
X144326910Y-75204111D01*
X144322765Y-75205245D01*
X144065097Y-75315149D01*
X143919747Y-75402140D01*
X143828411Y-75456803D01*
X143828407Y-75456806D01*
X143824729Y-75459007D01*
X143821386Y-75461685D01*
X143821382Y-75461688D01*
X143812046Y-75469168D01*
X143606109Y-75634155D01*
X143413281Y-75837352D01*
X143249815Y-76064839D01*
X143118735Y-76312407D01*
X143117263Y-76316430D01*
X143117261Y-76316434D01*
X143112903Y-76328344D01*
X143022466Y-76575473D01*
X142962790Y-76849171D01*
X142940812Y-77128435D01*
X137890129Y-77128435D01*
X137641405Y-76879711D01*
X137607379Y-76817399D01*
X137604500Y-76790616D01*
X137604500Y-74099224D01*
X137624502Y-74031103D01*
X137678158Y-73984610D01*
X137748432Y-73974506D01*
X137807204Y-73999262D01*
X137820357Y-74009355D01*
X137955246Y-74065228D01*
X138100000Y-74084285D01*
X138108188Y-74083207D01*
X138236566Y-74066306D01*
X138244754Y-74065228D01*
X138379643Y-74009355D01*
X138386196Y-74004327D01*
X138488921Y-73925503D01*
X138488924Y-73925500D01*
X138495474Y-73920474D01*
X138584355Y-73804642D01*
X138640228Y-73669754D01*
X138651671Y-73582839D01*
X138658207Y-73533188D01*
X138659285Y-73525000D01*
X138640228Y-73380246D01*
X138604485Y-73293955D01*
X138587515Y-73252986D01*
X138587514Y-73252984D01*
X138584355Y-73245358D01*
X138495474Y-73129526D01*
X138493402Y-73127936D01*
X138471869Y-73091526D01*
X138469477Y-73092675D01*
X138467973Y-73089544D01*
X138465261Y-73082924D01*
X138464004Y-73075374D01*
X138459056Y-73066203D01*
X138439652Y-73030240D01*
X138436957Y-73024951D01*
X138418212Y-72985915D01*
X138414780Y-72978768D01*
X138411186Y-72974492D01*
X138409246Y-72972552D01*
X138407493Y-72970641D01*
X138407444Y-72970551D01*
X138407567Y-72970439D01*
X138407095Y-72969904D01*
X138404010Y-72964186D01*
X138364413Y-72927583D01*
X138360848Y-72924154D01*
X137915129Y-72478435D01*
X142940812Y-72478435D01*
X142956937Y-72758099D01*
X142957762Y-72762306D01*
X142957763Y-72762311D01*
X142970322Y-72826324D01*
X143010868Y-73032986D01*
X143012255Y-73037037D01*
X143096226Y-73282296D01*
X143101606Y-73298011D01*
X143227473Y-73548269D01*
X143386139Y-73779130D01*
X143389020Y-73782296D01*
X143541710Y-73950100D01*
X143574669Y-73986322D01*
X143789573Y-74166010D01*
X143793199Y-74168285D01*
X143793201Y-74168286D01*
X143848661Y-74203076D01*
X144026876Y-74314869D01*
X144030778Y-74316631D01*
X144030782Y-74316633D01*
X144278273Y-74428380D01*
X144278277Y-74428382D01*
X144282185Y-74430146D01*
X144286305Y-74431366D01*
X144286304Y-74431366D01*
X144546664Y-74508488D01*
X144546668Y-74508489D01*
X144550777Y-74509706D01*
X144555014Y-74510354D01*
X144555017Y-74510355D01*
X144639874Y-74523340D01*
X144827682Y-74552079D01*
X144970295Y-74554319D01*
X145103484Y-74556412D01*
X145103490Y-74556412D01*
X145107775Y-74556479D01*
X145385875Y-74522825D01*
X145656833Y-74451740D01*
X145915638Y-74344540D01*
X145963396Y-74316633D01*
X146153801Y-74205369D01*
X146153802Y-74205369D01*
X146157499Y-74203208D01*
X146377941Y-74030359D01*
X146572886Y-73829192D01*
X146575419Y-73825744D01*
X146575423Y-73825739D01*
X146736187Y-73606884D01*
X146738725Y-73603429D01*
X146746161Y-73589734D01*
X146870341Y-73361023D01*
X146870342Y-73361021D01*
X146872391Y-73357247D01*
X146971409Y-73095203D01*
X147033948Y-72822146D01*
X147048241Y-72661995D01*
X147058629Y-72545595D01*
X147058629Y-72545589D01*
X147058849Y-72543127D01*
X147059301Y-72500000D01*
X147040248Y-72220521D01*
X146983442Y-71946213D01*
X146889933Y-71682153D01*
X146860400Y-71624933D01*
X153395500Y-71624933D01*
X153395501Y-73375066D01*
X153410266Y-73449301D01*
X153417161Y-73459620D01*
X153417162Y-73459622D01*
X153423932Y-73469754D01*
X153466516Y-73533484D01*
X153550699Y-73589734D01*
X153624933Y-73604500D01*
X154499858Y-73604500D01*
X155375066Y-73604499D01*
X155412699Y-73597014D01*
X155437126Y-73592156D01*
X155437128Y-73592155D01*
X155449301Y-73589734D01*
X155459621Y-73582839D01*
X155459622Y-73582838D01*
X155523168Y-73540377D01*
X155533484Y-73533484D01*
X155589734Y-73449301D01*
X155604500Y-73375067D01*
X155604499Y-71624934D01*
X155589734Y-71550699D01*
X155569256Y-71520051D01*
X155540377Y-71476832D01*
X155533484Y-71466516D01*
X155466027Y-71421442D01*
X155459620Y-71417161D01*
X155449301Y-71410266D01*
X155375067Y-71395500D01*
X154500142Y-71395500D01*
X153624934Y-71395501D01*
X153589182Y-71402612D01*
X153562874Y-71407844D01*
X153562872Y-71407845D01*
X153550699Y-71410266D01*
X153540379Y-71417161D01*
X153540378Y-71417162D01*
X153521583Y-71429721D01*
X153466516Y-71466516D01*
X153410266Y-71550699D01*
X153395500Y-71624933D01*
X146860400Y-71624933D01*
X146761452Y-71433226D01*
X146758950Y-71429665D01*
X146602844Y-71207550D01*
X146602843Y-71207549D01*
X146600377Y-71204040D01*
X146409689Y-70998834D01*
X146395550Y-70987261D01*
X146196232Y-70824123D01*
X146192914Y-70821407D01*
X145954066Y-70675040D01*
X145697563Y-70562443D01*
X145678210Y-70556930D01*
X145647881Y-70548291D01*
X145428153Y-70485700D01*
X145423911Y-70485096D01*
X145423905Y-70485095D01*
X145218548Y-70455868D01*
X145150819Y-70446229D01*
X145003708Y-70445459D01*
X144874981Y-70444785D01*
X144874975Y-70444785D01*
X144870695Y-70444763D01*
X144866451Y-70445322D01*
X144866447Y-70445322D01*
X144744326Y-70461400D01*
X144592964Y-70481327D01*
X144588824Y-70482460D01*
X144588822Y-70482460D01*
X144326910Y-70554111D01*
X144322765Y-70555245D01*
X144065097Y-70665149D01*
X143919747Y-70752140D01*
X143828411Y-70806803D01*
X143828407Y-70806806D01*
X143824729Y-70809007D01*
X143821386Y-70811685D01*
X143821382Y-70811688D01*
X143812046Y-70819168D01*
X143606109Y-70984155D01*
X143603165Y-70987257D01*
X143603161Y-70987261D01*
X143416231Y-71184243D01*
X143413281Y-71187352D01*
X143249815Y-71414839D01*
X143247811Y-71418624D01*
X143135301Y-71631120D01*
X143118735Y-71662407D01*
X143117263Y-71666430D01*
X143117261Y-71666434D01*
X143092312Y-71734611D01*
X143022466Y-71925473D01*
X142962790Y-72199171D01*
X142940812Y-72478435D01*
X137915129Y-72478435D01*
X137206478Y-71769784D01*
X137191336Y-71751036D01*
X137190221Y-71749811D01*
X137184571Y-71741060D01*
X137176393Y-71734613D01*
X137176391Y-71734611D01*
X137158200Y-71720271D01*
X137153759Y-71716325D01*
X137153697Y-71716398D01*
X137149733Y-71713039D01*
X137146056Y-71709362D01*
X137130308Y-71698108D01*
X137125638Y-71694602D01*
X137085353Y-71662844D01*
X137076719Y-71659812D01*
X137069266Y-71654486D01*
X137020150Y-71639797D01*
X137014508Y-71637964D01*
X136973633Y-71623610D01*
X136973632Y-71623610D01*
X136966149Y-71620982D01*
X136960584Y-71620500D01*
X136957876Y-71620500D01*
X136955242Y-71620386D01*
X136955144Y-71620357D01*
X136955151Y-71620193D01*
X136954447Y-71620149D01*
X136948222Y-71618287D01*
X136894365Y-71620403D01*
X136889418Y-71620500D01*
X114622115Y-71620500D01*
X114553994Y-71600498D01*
X114507501Y-71546842D01*
X114498733Y-71520051D01*
X114489783Y-71476832D01*
X114483442Y-71446213D01*
X114389933Y-71182153D01*
X114261452Y-70933226D01*
X114248530Y-70914839D01*
X114102844Y-70707550D01*
X114102843Y-70707549D01*
X114100377Y-70704040D01*
X113909689Y-70498834D01*
X113895550Y-70487261D01*
X113696232Y-70324123D01*
X113692914Y-70321407D01*
X113454066Y-70175040D01*
X113197563Y-70062443D01*
X113178210Y-70056930D01*
X113111045Y-70037798D01*
X112970980Y-69997900D01*
X112910947Y-69960002D01*
X112880932Y-69895662D01*
X112879500Y-69876721D01*
X112879500Y-69259384D01*
X112899502Y-69191263D01*
X112916405Y-69170289D01*
X115090216Y-66996478D01*
X115108964Y-66981336D01*
X115110189Y-66980221D01*
X115118940Y-66974571D01*
X115125387Y-66966393D01*
X115125389Y-66966391D01*
X115139729Y-66948200D01*
X115143675Y-66943759D01*
X115143602Y-66943697D01*
X115146961Y-66939733D01*
X115150638Y-66936056D01*
X115161892Y-66920308D01*
X115165398Y-66915638D01*
X115197156Y-66875353D01*
X115200188Y-66866719D01*
X115205514Y-66859266D01*
X115220203Y-66810150D01*
X115222036Y-66804508D01*
X115236390Y-66763633D01*
X115236390Y-66763632D01*
X115239018Y-66756149D01*
X115239500Y-66750584D01*
X115239500Y-66747876D01*
X115239614Y-66745242D01*
X115239643Y-66745144D01*
X115239807Y-66745151D01*
X115239851Y-66744447D01*
X115241713Y-66738222D01*
X115239597Y-66684365D01*
X115239500Y-66679418D01*
X115239500Y-63553435D01*
X131290812Y-63553435D01*
X131306937Y-63833099D01*
X131307762Y-63837306D01*
X131307763Y-63837311D01*
X131320322Y-63901324D01*
X131360868Y-64107986D01*
X131451606Y-64373011D01*
X131577473Y-64623269D01*
X131736139Y-64854130D01*
X131924669Y-65061322D01*
X132139573Y-65241010D01*
X132143199Y-65243285D01*
X132143201Y-65243286D01*
X132198661Y-65278076D01*
X132376876Y-65389869D01*
X132380778Y-65391631D01*
X132380782Y-65391633D01*
X132628273Y-65503380D01*
X132628277Y-65503382D01*
X132632185Y-65505146D01*
X132636305Y-65506366D01*
X132636304Y-65506366D01*
X132896664Y-65583488D01*
X132896668Y-65583489D01*
X132900777Y-65584706D01*
X132905014Y-65585354D01*
X132905017Y-65585355D01*
X132989874Y-65598340D01*
X133177682Y-65627079D01*
X133320296Y-65629319D01*
X133453484Y-65631412D01*
X133453490Y-65631412D01*
X133457775Y-65631479D01*
X133735875Y-65597825D01*
X134006833Y-65526740D01*
X134265638Y-65419540D01*
X134313396Y-65391633D01*
X134503801Y-65280369D01*
X134503802Y-65280369D01*
X134507499Y-65278208D01*
X134727941Y-65105359D01*
X134922886Y-64904192D01*
X134925419Y-64900744D01*
X134925423Y-64900739D01*
X135086187Y-64681884D01*
X135088725Y-64678429D01*
X135116755Y-64626804D01*
X135220341Y-64436023D01*
X135220342Y-64436021D01*
X135222391Y-64432247D01*
X135321409Y-64170203D01*
X135383948Y-63897146D01*
X135408849Y-63618127D01*
X135409301Y-63575000D01*
X135390248Y-63295521D01*
X135333442Y-63021213D01*
X135239933Y-62757153D01*
X135179033Y-62639162D01*
X135113417Y-62512033D01*
X135113417Y-62512032D01*
X135111452Y-62508226D01*
X135098530Y-62489839D01*
X134952844Y-62282550D01*
X134952843Y-62282549D01*
X134950377Y-62279040D01*
X134759689Y-62073834D01*
X134745550Y-62062261D01*
X134546232Y-61899123D01*
X134542914Y-61896407D01*
X134304066Y-61750040D01*
X134102884Y-61661727D01*
X134051495Y-61639169D01*
X134047563Y-61637443D01*
X134028210Y-61631930D01*
X133997881Y-61623291D01*
X133778153Y-61560700D01*
X133773911Y-61560096D01*
X133773905Y-61560095D01*
X133568548Y-61530868D01*
X133500819Y-61521229D01*
X133353708Y-61520459D01*
X133224981Y-61519785D01*
X133224975Y-61519785D01*
X133220695Y-61519763D01*
X133216451Y-61520322D01*
X133216447Y-61520322D01*
X133094326Y-61536400D01*
X132942964Y-61556327D01*
X132938824Y-61557460D01*
X132938822Y-61557460D01*
X132676910Y-61629111D01*
X132672765Y-61630245D01*
X132415097Y-61740149D01*
X132349977Y-61779123D01*
X132178411Y-61881803D01*
X132178407Y-61881806D01*
X132174729Y-61884007D01*
X132171386Y-61886685D01*
X132171382Y-61886688D01*
X132074040Y-61964674D01*
X131956109Y-62059155D01*
X131953165Y-62062257D01*
X131953161Y-62062261D01*
X131766231Y-62259243D01*
X131763281Y-62262352D01*
X131599815Y-62489839D01*
X131468735Y-62737407D01*
X131467263Y-62741430D01*
X131467261Y-62741434D01*
X131453817Y-62778171D01*
X131372466Y-63000473D01*
X131312790Y-63274171D01*
X131290812Y-63553435D01*
X115239500Y-63553435D01*
X115239500Y-62726488D01*
X115259502Y-62658367D01*
X115311427Y-62613802D01*
X115311165Y-62613334D01*
X115313491Y-62612032D01*
X115313493Y-62612030D01*
X115488276Y-62514147D01*
X115495396Y-62508226D01*
X115639913Y-62388031D01*
X115644345Y-62384345D01*
X115774147Y-62228276D01*
X115868760Y-62059332D01*
X115870510Y-62056208D01*
X115870511Y-62056206D01*
X115873334Y-62051165D01*
X115875190Y-62045698D01*
X115875192Y-62045693D01*
X115936728Y-61864414D01*
X115936729Y-61864409D01*
X115938584Y-61858945D01*
X115939412Y-61853236D01*
X115939413Y-61853231D01*
X115967179Y-61661727D01*
X115967712Y-61658053D01*
X115969232Y-61600000D01*
X115957375Y-61470964D01*
X136876148Y-61470964D01*
X136889424Y-61673522D01*
X136890845Y-61679118D01*
X136890846Y-61679123D01*
X136935065Y-61853231D01*
X136939392Y-61870269D01*
X136941809Y-61875512D01*
X136979010Y-61956208D01*
X137024377Y-62054616D01*
X137027710Y-62059332D01*
X137099662Y-62161142D01*
X137141533Y-62220389D01*
X137286938Y-62362035D01*
X137455720Y-62474812D01*
X137461023Y-62477090D01*
X137461026Y-62477092D01*
X137549707Y-62515192D01*
X137642228Y-62554942D01*
X137715244Y-62571464D01*
X137834579Y-62598467D01*
X137834584Y-62598468D01*
X137840216Y-62599742D01*
X137845987Y-62599969D01*
X137845989Y-62599969D01*
X137905756Y-62602317D01*
X138043053Y-62607712D01*
X138143499Y-62593148D01*
X138238231Y-62579413D01*
X138238236Y-62579412D01*
X138243945Y-62578584D01*
X138249409Y-62576729D01*
X138249414Y-62576728D01*
X138430693Y-62515192D01*
X138430698Y-62515190D01*
X138436165Y-62513334D01*
X138441310Y-62510453D01*
X138534967Y-62458002D01*
X138613276Y-62414147D01*
X138675934Y-62362035D01*
X138764913Y-62288031D01*
X138769345Y-62284345D01*
X138866011Y-62168118D01*
X138895453Y-62132718D01*
X138895455Y-62132715D01*
X138899147Y-62128276D01*
X138998334Y-61951165D01*
X139000190Y-61945698D01*
X139000192Y-61945693D01*
X139061728Y-61764414D01*
X139061729Y-61764409D01*
X139063584Y-61758945D01*
X139064412Y-61753236D01*
X139064413Y-61753231D01*
X139090840Y-61570964D01*
X139092712Y-61558053D01*
X139094232Y-61500000D01*
X139075658Y-61297859D01*
X139070264Y-61278732D01*
X139022125Y-61108046D01*
X139022124Y-61108044D01*
X139020557Y-61102487D01*
X139009978Y-61081033D01*
X138933331Y-60925609D01*
X138930776Y-60920428D01*
X138809320Y-60757779D01*
X138660258Y-60619987D01*
X138655375Y-60616906D01*
X138655371Y-60616903D01*
X138493464Y-60514748D01*
X138488581Y-60511667D01*
X138300039Y-60436446D01*
X138294379Y-60435320D01*
X138294375Y-60435319D01*
X138106613Y-60397971D01*
X138106610Y-60397971D01*
X138100946Y-60396844D01*
X138095171Y-60396768D01*
X138095167Y-60396768D01*
X137993793Y-60395441D01*
X137897971Y-60394187D01*
X137892274Y-60395166D01*
X137892273Y-60395166D01*
X137703607Y-60427585D01*
X137697910Y-60428564D01*
X137507463Y-60498824D01*
X137333010Y-60602612D01*
X137328670Y-60606418D01*
X137328666Y-60606421D01*
X137308723Y-60623911D01*
X137180392Y-60736455D01*
X137176817Y-60740990D01*
X137176816Y-60740991D01*
X137166675Y-60753855D01*
X137054720Y-60895869D01*
X137052031Y-60900980D01*
X137052029Y-60900983D01*
X137039073Y-60925609D01*
X136960203Y-61075515D01*
X136900007Y-61269378D01*
X136876148Y-61470964D01*
X115957375Y-61470964D01*
X115950658Y-61397859D01*
X115949090Y-61392299D01*
X115897125Y-61208046D01*
X115897124Y-61208044D01*
X115895557Y-61202487D01*
X115884978Y-61181033D01*
X115808331Y-61025609D01*
X115805776Y-61020428D01*
X115684320Y-60857779D01*
X115535258Y-60719987D01*
X115530375Y-60716906D01*
X115530371Y-60716903D01*
X115376767Y-60619987D01*
X115363581Y-60611667D01*
X115175039Y-60536446D01*
X115169379Y-60535320D01*
X115169375Y-60535319D01*
X114981613Y-60497971D01*
X114981610Y-60497971D01*
X114975946Y-60496844D01*
X114970171Y-60496768D01*
X114970167Y-60496768D01*
X114868793Y-60495441D01*
X114772971Y-60494187D01*
X114767274Y-60495166D01*
X114767273Y-60495166D01*
X114578607Y-60527585D01*
X114572910Y-60528564D01*
X114382463Y-60598824D01*
X114377502Y-60601776D01*
X114377501Y-60601776D01*
X114364473Y-60609527D01*
X114208010Y-60702612D01*
X114203670Y-60706418D01*
X114203666Y-60706421D01*
X114059733Y-60832648D01*
X114055392Y-60836455D01*
X113929720Y-60995869D01*
X113927031Y-61000980D01*
X113927029Y-61000983D01*
X113914073Y-61025609D01*
X113835203Y-61175515D01*
X113775007Y-61369378D01*
X113751148Y-61570964D01*
X113751526Y-61576730D01*
X113762127Y-61738468D01*
X113764424Y-61773522D01*
X113765845Y-61779118D01*
X113765846Y-61779123D01*
X113795633Y-61896407D01*
X113814392Y-61970269D01*
X113816809Y-61975512D01*
X113853276Y-62054616D01*
X113899377Y-62154616D01*
X113902710Y-62159332D01*
X113987928Y-62279913D01*
X114016533Y-62320389D01*
X114161938Y-62462035D01*
X114330720Y-62574812D01*
X114336023Y-62577090D01*
X114336028Y-62577093D01*
X114404237Y-62606397D01*
X114458930Y-62651665D01*
X114480500Y-62722165D01*
X114480500Y-66480616D01*
X114460498Y-66548737D01*
X114443595Y-66569711D01*
X112269784Y-68743522D01*
X112251036Y-68758664D01*
X112249811Y-68759779D01*
X112241060Y-68765429D01*
X112234613Y-68773607D01*
X112234611Y-68773609D01*
X112220271Y-68791800D01*
X112216325Y-68796241D01*
X112216398Y-68796303D01*
X112213039Y-68800267D01*
X112209362Y-68803944D01*
X112198108Y-68819692D01*
X112194602Y-68824362D01*
X112162844Y-68864647D01*
X112159812Y-68873281D01*
X112154486Y-68880734D01*
X112151501Y-68890715D01*
X112139799Y-68929844D01*
X112137964Y-68935492D01*
X112120982Y-68983851D01*
X112120500Y-68989416D01*
X112120500Y-68992124D01*
X112120386Y-68994758D01*
X112120357Y-68994856D01*
X112120193Y-68994849D01*
X112120149Y-68995553D01*
X112118287Y-69001778D01*
X112118696Y-69012183D01*
X112120403Y-69055635D01*
X112120500Y-69060582D01*
X112120500Y-69877634D01*
X112100498Y-69945755D01*
X112046842Y-69992248D01*
X112027747Y-69999168D01*
X111822765Y-70055245D01*
X111565097Y-70165149D01*
X111419747Y-70252140D01*
X111328411Y-70306803D01*
X111328407Y-70306806D01*
X111324729Y-70309007D01*
X111321386Y-70311685D01*
X111321382Y-70311688D01*
X111312046Y-70319168D01*
X111106109Y-70484155D01*
X111103165Y-70487257D01*
X111103161Y-70487261D01*
X110922838Y-70677281D01*
X110913281Y-70687352D01*
X110749815Y-70914839D01*
X110618735Y-71162407D01*
X110617263Y-71166430D01*
X110617261Y-71166434D01*
X110525508Y-71417161D01*
X110522466Y-71425473D01*
X110462790Y-71699171D01*
X110461988Y-71709362D01*
X110443018Y-71950410D01*
X110440812Y-71978435D01*
X91329000Y-71978435D01*
X91329000Y-62839806D01*
X91330914Y-62817926D01*
X91332161Y-62810854D01*
X91334075Y-62800000D01*
X91332161Y-62789145D01*
X91332161Y-62782434D01*
X91331044Y-62763600D01*
X91333866Y-62713359D01*
X91346655Y-62485611D01*
X91348237Y-62471574D01*
X91349313Y-62465245D01*
X91388821Y-62232718D01*
X91399797Y-62168118D01*
X91402941Y-62154343D01*
X91488153Y-61858567D01*
X91492820Y-61845230D01*
X91568829Y-61661727D01*
X91610612Y-61560853D01*
X91616741Y-61548126D01*
X91631272Y-61521834D01*
X91765635Y-61278724D01*
X91773142Y-61266776D01*
X91951274Y-61015722D01*
X91960072Y-61004690D01*
X92165182Y-60775171D01*
X92175172Y-60765181D01*
X92202241Y-60740991D01*
X92404690Y-60560072D01*
X92415725Y-60551272D01*
X92666776Y-60373142D01*
X92678724Y-60365635D01*
X92948130Y-60216739D01*
X92960853Y-60210612D01*
X93071006Y-60164985D01*
X93245230Y-60092820D01*
X93258567Y-60088153D01*
X93554343Y-60002941D01*
X93568118Y-59999797D01*
X93719846Y-59974017D01*
X93871579Y-59948236D01*
X93885611Y-59946655D01*
X94163602Y-59931044D01*
X94182434Y-59932161D01*
X94189145Y-59932161D01*
X94200000Y-59934075D01*
X94217928Y-59930914D01*
X94239806Y-59929000D01*
X153160194Y-59929000D01*
X153182072Y-59930914D01*
G37*
%TD.AperFunction*%
%TD*%
M02*
