M48
; DRILL file {KiCad (6.0.0)} date Tue Aug 30 12:58:28 2022
; FORMAT={-:-/ absolute / inch / decimal}
; #@! TF.CreationDate,2022-08-30T12:58:28+02:00
; #@! TF.GenerationSoftware,Kicad,Pcbnew,(6.0.0)
; #@! TF.FileFunction,MixedPlating,1,2
FMAT,2
INCH
; #@! TA.AperFunction,Plated,PTH,ViaDrill
T1C0.0118
; #@! TA.AperFunction,Plated,PTH,ComponentDrill
T2C0.0394
; #@! TA.AperFunction,Plated,PTH,ComponentDrill
T3C0.0787
; #@! TA.AperFunction,Plated,PTH,ComponentDrill
T4C0.1260
%
G90
G05
T1
X4.9852Y-4.126
X5.127Y-4.1299
X5.2441Y-4.314
X5.313Y-4.2884
X5.3937Y-4.0118
X5.4026Y-2.8868
X5.4065Y-4.0561
X5.4149Y-4.3214
X5.437Y-2.8947
X5.4439Y-3.1821
X5.5827Y-4.3228
T2
X4.5Y-3.4833
X4.5Y-3.5833
X4.5Y-3.6833
X4.5211Y-4.7047
X4.522Y-2.4252
X4.6211Y-4.7047
X4.622Y-2.4252
X4.7787Y-3.3268
X4.7789Y-3.185
X4.7795Y-3.4685
X4.8787Y-3.3268
X4.8789Y-3.185
X4.8795Y-3.4685
X4.937Y-3.7756
X4.937Y-3.8756
X4.9787Y-3.3268
X5.0787Y-3.3268
X5.0787Y-3.7766
X5.0787Y-3.8766
X5.4325Y-2.4213
X5.4344Y-4.7165
X5.5325Y-2.4213
X5.5344Y-4.7165
X6.0827Y-2.7543
X6.0827Y-2.8543
X6.0827Y-3.0394
X6.0827Y-3.1394
X6.0827Y-3.9157
X6.0827Y-4.0157
X6.0827Y-4.2008
X6.0827Y-4.3008
T3
X4.4291Y-2.8346
X4.4291Y-4.3307
X4.7008Y-3.8583
X4.8579Y-4.5969
X5.0591Y-4.5965
X5.25Y-2.503
X5.2559Y-4.5945
X5.7077Y-4.1998
X5.7087Y-2.8543
X5.7087Y-3.0374
X5.7087Y-4.0157
T4
X3.7087Y-2.4724
X3.7126Y-4.6614
X6.0276Y-2.4764
X6.0276Y-4.6614
T0
M30
